<?xml version="1.0"?>
<svg width="300" height="80" xmlns="http://www.w3.org/2000/svg" xmlns:svg="http://www.w3.org/2000/svg" xmlns:xlink="http://www.w3.org/1999/xlink">
 <title>SAN Disk Array 1</title>
 <defs>
  <linearGradient id="linearGradient3834">
   <stop id="stop3836" offset="0" stop-color="#bcbcbc"/>
   <stop id="stop3838" offset="1" stop-color="#040404"/>
  </linearGradient>
  <linearGradient id="linearGradient3826">
   <stop id="stop3828" offset="0" stop-color="#c8c8c8"/>
   <stop id="stop3830" offset="1" stop-color="#1d1d1d"/>
  </linearGradient>
  <linearGradient id="linearGradient4290">
   <stop id="stop4292" offset="0" stop-color="#909090"/>
   <stop id="stop4298" offset="0.5" stop-color="#ababab"/>
   <stop id="stop4294" offset="1" stop-color="#181818"/>
  </linearGradient>
  <linearGradient id="linearGradient4111">
   <stop id="stop4113" offset="0" stop-color="#232323"/>
   <stop id="stop4115" offset="1" stop-color="#474747"/>
  </linearGradient>
  <linearGradient id="linearGradient3432">
   <stop id="stop3434" offset="0" stop-color="#f2f2f2"/>
   <stop id="stop3436" offset="1" stop-color="#141414"/>
  </linearGradient>
  <linearGradient id="linearGradient3442">
   <stop id="stop3444" offset="0" stop-color="#f0f0f0"/>
   <stop id="stop3446" offset="1" stop-color="#afafaf"/>
  </linearGradient>
  <filter color-interpolation-filters="sRGB" height="1.3107" id="filter4518" width="1.2799" x="-0.13995" y="-0.15534">
   <feGaussianBlur id="feGaussianBlur4520" stdDeviation="0.999606"/>
  </filter>
  <linearGradient id="linearGradient4777" x1="0.500493" x2="0.500493" y1="0.884673" y2="0.970573">
   <stop id="stop2758" offset="0" stop-color="#1c1c1c"/>
   <stop id="stop2760" offset="1" stop-color="#424242"/>
  </linearGradient>
  <linearGradient id="linearGradient4779" x1="-0.026031" x2="1.025973" xlink:href="#linearGradient4111" y1="0.499989" y2="0.499989"/>
  <linearGradient id="linearGradient4781" x1="0.548146" x2="0.548146" xlink:href="#linearGradient4290" y1="-0.000982" y2="0.999803"/>
  <linearGradient id="linearGradient4783" x1="0.548146" x2="0.548146" xlink:href="#linearGradient4290" y1="-0.000393" y2="1.000393"/>
  <linearGradient id="linearGradient4785" x1="0.179414" x2="0.747689" y1="0.055154" y2="0.954452">
   <stop id="stop4344" offset="0" stop-color="#282828"/>
   <stop id="stop4350" offset="0.56774" stop-color="#737373"/>
   <stop id="stop4346" offset="1" stop-color="#353535"/>
  </linearGradient>
  <linearGradient id="linearGradient4787" x1="0.473228" x2="0.473228" y1="0.001656" y2="0.999116">
   <stop id="stop3105" offset="0" stop-color="#a9a9a9"/>
   <stop id="stop3111" offset="0.27306" stop-color="#f6f6f6"/>
   <stop id="stop3107" offset="1" stop-color="#3e3e3e"/>
  </linearGradient>
  <linearGradient id="linearGradient4789" x1="0.484083" x2="0.499752" y1="0.000211" y2="1.000226">
   <stop id="stop3960" offset="0" stop-color="#000000"/>
   <stop id="stop3970" offset="0.01261" stop-color="#000000"/>
   <stop id="stop4037" offset="0.018693" stop-color="#282828"/>
   <stop id="stop3972" offset="0.48156" stop-color="#313131"/>
   <stop id="stop3966" offset="0.97156" stop-color="#9d9d9d"/>
   <stop id="stop4039" offset="0.98694" stop-color="#1a1a1a"/>
   <stop id="stop3962" offset="1" stop-color="#161616"/>
  </linearGradient>
  <linearGradient id="linearGradient4791" x1="0.07018" x2="0.798774" y1="0.518431" y2="0.518431">
   <stop id="stop3770" offset="0" stop-color="#aa515d"/>
   <stop id="stop3776" offset="0.5" stop-color="#693239"/>
   <stop id="stop3772" offset="1" stop-color="#a94f5c"/>
  </linearGradient>
  <linearGradient id="linearGradient4793" x1="-0.000646" x2="1.000019" y1="0.509732" y2="0.598083">
   <stop id="stop4075" offset="0" stop-color="#000000"/>
   <stop id="stop4081" offset="0.012532" stop-color="#404040" stop-opacity="0.99608"/>
   <stop id="stop4089" offset="0.023465" stop-color="#a0a0a0" stop-opacity="0.99216"/>
   <stop id="stop4091" offset="0.034048" stop-color="#232323" stop-opacity="0.99216"/>
   <stop id="stop4093" offset="0.049191" stop-color="#515151" stop-opacity="0.99216"/>
   <stop id="stop4083" offset="0.31646" stop-color="#7e7e7e" stop-opacity="0.99216"/>
   <stop id="stop4087" offset="0.63713" stop-color="#353535" stop-opacity="0.99216"/>
   <stop id="stop4099" offset="0.93212" stop-color="#282828" stop-opacity="0.99216"/>
   <stop id="stop4097" offset="0.95782" stop-color="#090909" stop-opacity="0.99216"/>
   <stop id="stop4095" offset="0.97596" stop-color="#858585" stop-opacity="0.99216"/>
   <stop id="stop4085" offset="0.99019" stop-color="#212121" stop-opacity="0.99216"/>
   <stop id="stop4077" offset="1" stop-color="#000000" stop-opacity="0.99216"/>
  </linearGradient>
  <linearGradient id="linearGradient4797" x1="0.482542" x2="0.498918" y1="0.000545" y2="1.000648">
   <stop id="stop4213" offset="0" stop-color="#000000"/>
   <stop id="stop4215" offset="0.046411" stop-color="#909090"/>
   <stop id="stop4217" offset="0.10453" stop-color="#4e4e4e"/>
   <stop id="stop4219" offset="0.35657" stop-color="#3e3e3e"/>
   <stop id="stop4221" offset="0.7246" stop-color="#d3d3d3"/>
   <stop id="stop4223" offset="0.9376" stop-color="#a6a6a6"/>
   <stop id="stop4225" offset="1" stop-color="#000000"/>
  </linearGradient>
  <radialGradient cx="1560.3" cy="1528.3" gradientTransform="matrix(1 0 0 .86599 -2.2328 180.91)" gradientUnits="userSpaceOnUse" id="radialGradient4799" r="5.869" xlink:href="#linearGradient3432"/>
  <radialGradient cx="1564.1" cy="1531.6" gradientUnits="userSpaceOnUse" id="radialGradient4801" r="5.2603" xlink:href="#linearGradient3442"/>
  <linearGradient id="linearGradient4815" x1="0.548092" x2="0.548092" xlink:href="#linearGradient4290" y1="-0.000158" y2="1.000628"/>
  <linearGradient id="linearGradient4817" x1="0.002927" x2="0.999868" y1="0.481625" y2="0.499681">
   <stop id="stop3258" offset="0" stop-color="#1d1d1d"/>
   <stop id="stop3264" offset="0.12513" stop-color="#838383"/>
   <stop id="stop3266" offset="0.8909" stop-color="#838383"/>
   <stop id="stop3260" offset="1" stop-color="#ebebeb"/>
  </linearGradient>
  <linearGradient id="linearGradient4819" x1="0.494838" x2="0.494838" y1="0.015943" y2="1.000286">
   <stop id="stop3274" offset="0" stop-color="#000000"/>
   <stop id="stop3280" offset="0.13356" stop-color="#000000" stop-opacity="0.1913"/>
   <stop id="stop3282" offset="0.86614" stop-color="#000000" stop-opacity="0.19216"/>
   <stop id="stop3276" offset="1" stop-color="#000000" stop-opacity="0"/>
  </linearGradient>
  <linearGradient id="linearGradient4821" x1="0.005653" x2="0.999863" y1="0.506814" y2="0.506814">
   <stop id="stop3331" offset="0" stop-color="#000000"/>
   <stop id="stop3337" offset="0.0113" stop-color="#2f2f2f" stop-opacity="0.95294"/>
   <stop id="stop3339" offset="0.98446" stop-color="#2f2f2f" stop-opacity="0.95294"/>
   <stop id="stop3333" offset="1" stop-color="#000000"/>
  </linearGradient>
  <linearGradient id="linearGradient4823" x1="0.691656" x2="1.098691" xlink:href="#linearGradient3834" y1="1" y2="0.305273"/>
  <linearGradient id="linearGradient4825" x1="0.008927" x2="1.002852" xlink:href="#linearGradient3826" y1="0.463048" y2="0.463048"/>
  <linearGradient id="linearGradient4827" x1="0.720583" x2="1.058615" xlink:href="#linearGradient3834" y1="-0.000001" y2="0.500219"/>
  <linearGradient id="linearGradient4829" x1="0.320332" x2="-0.086703" xlink:href="#linearGradient3834" y1="1" y2="0.305273"/>
  <linearGradient id="linearGradient4831" x1="-2.120913" x2="-3.114838" xlink:href="#linearGradient3826" y1="0.463048" y2="0.463048"/>
  <linearGradient id="linearGradient4833" x1="0.283349" x2="-0.054683" xlink:href="#linearGradient3834" y1="-0.000001" y2="0.500219"/>
 </defs>
 <metadata>image/svg+xmlOpenclipartSAN Disk Array SCSI2011-08-04T10:37:34An original depiction of a popular server disk arrayhttps://openclipart.org/detail/153601/san-disk-array-scsi-by-rob-fenwitchRob FenwitchArrayComputingDiskHP MSA30MSA 30SANSCSIcomputermountednetworkphotorealisticrackserverstorage</metadata>
 <g class="layer">
  <title>Layer 1</title>
  <g id="layer1">
   <g id="g4654" transform="matrix(-0.315978 0 0 -0.297505 249.397 -18.7016)">
    <g id="g5184" transform="translate(-15.589 -161.37)">
     <rect fill="#808080" fill-rule="evenodd" height="260.5" id="rect48371" rx="6" ry="6" stroke="#000000" stroke-linecap="square" stroke-width="2" width="948" x="-141.986632" y="-165.352809"/>
     <rect fill="#1d1d1d" fill-rule="evenodd" height="260.5" id="rect3935" rx="6" ry="6" stroke="#2f2f2f" stroke-linecap="square" stroke-width="2" width="877.89" x="-106.926632" y="-165.352809"/>
    </g>
    <rect fill="url(#linearGradient4777)" fill-rule="evenodd" height="244.8" id="rect4123" stroke="#000000" stroke-linecap="square" stroke-width="1.9631" transform="translate(0 6) scale(1 -1)" width="56.233" x="699.153368" y="75.335809"/>
    <g id="g4139" transform="matrix(0.411 0 0 0.38473 -157.13 -289)">
     <rect fill="#cccccc" height="48.471" id="rect4107" rx="7.1256" ry="7.6429" stroke="url(#linearGradient4779)" stroke-width="1.35" transform="translate(-5.68434e-14 15.5954) scale(1 -1)" width="65.953" x="7.962535" y="54.290003"/>
    </g>
    <g id="g4668" transform="matrix(1.0674 0 0 1 22.523 -0.82454)">
     <rect fill="url(#linearGradient4781)" height="10.182" id="rect4288" width="819.88" x="-134.982436" y="-323.252809"/>
     <rect fill="url(#linearGradient4783)" height="10.182" id="rect4300" width="819.88" x="-134.982436" y="-78.228809"/>
    </g>
    <g id="g8004" transform="translate(-557.33 -548.15)">
     <rect fill="#1d1d1d" height="229.86" id="rect8006" width="55.733" x="437.933368" y="233.717191"/>
     <rect fill="url(#linearGradient4785)" height="66.797" id="rect8008" transform="translate(0 6) scale(1 -1)" width="16.267" x="464.223368" y="-308.387191"/>
     <path d="m437.943368,233.727191l0,229.85l3.0753,0l4.5148,0l0,-10.319l4.7438,0l7.8191,0l4.7111,0l0,10.319l2.9772,0l0,-10.542l3.4352,0l5.6272,0l3.4025,0l0,10.542l1.7667,0l3.108,0l0,-229.85l-3.108,0l-1.7667,0l0,10.542l-3.4025,0l-5.6272,0l-3.4352,0l0,-10.542l-24.766,0l-3.0753,0zm24.864,229.85l-17.274,0l0,0.47919l4.7438,0l7.8191,0l4.7111,0l0,-0.47919zm-17.699,-229.79l4.7438,0l7.7864,0l4.7438,0l0,10.063l-4.7438,0l-7.7864,0l-4.7438,0l0,-10.063zm0,14.631l4.7438,0l7.7864,0l4.7438,0l0,64.244l-4.7438,0l-7.7864,0l-4.7438,0l0,-64.244zm20.677,0l3.4352,0l5.6272,0l3.4025,0l0,64.276l-3.4025,0l-5.6272,0l-3.4352,0l0,-64.276zm-20.677,68.109l4.7438,0l7.7864,0l4.7438,0l0,64.244l-4.7438,0l-7.7864,0l-4.7438,0l0,-64.244zm20.677,0.4153l3.4352,0l5.6272,0l3.4025,0l0,64.404l-3.4025,0l-5.6272,0l-3.4352,0l0,-64.404zm-19.793,68.173l4.7438,0l7.7864,0l4.7438,0l0,63.413l-4.7438,0l-7.7864,0l-4.7438,0l0,-63.413zm19.793,0.51114l3.4352,0l5.6272,0l3.4025,0l0,63.254l-3.4025,0l-5.6272,0l-3.4352,0l0,-63.254z" fill="url(#linearGradient4787)" id="path8010"/>
     <rect fill="url(#linearGradient4789)" height="55.05" id="rect8012" rx="2.6631" width="33.408" x="460.263368" y="321.627191"/>
     <rect fill="url(#linearGradient4791)" height="16.794" id="rect8014" stroke="#aa515d" stroke-linecap="square" stroke-width="1.0109" transform="rotate(90 212.464 -38.1628)" width="27.743" x="496.093368" y="-287.702809"/>
     <rect fill="url(#linearGradient4793)" height="17.537" id="rect8016" transform="rotate(90 212.464 -38.1628)" width="176.25" x="524.383368" y="-288.382809"/>
     <g id="g8018" transform="matrix(0 0.27365 -0.28024 0 251.62 517.58)">
      <rect fill="#333333" height="48.471" id="rect8020" rx="7.1256" ry="7.6429" stroke="url(#linearGradient4779)" stroke-width="2.0547" transform="translate(21.9258 0) scale(1 -1)" width="65.953" x="-670.364245" y="697.648923"/>
      <path d="m726.091572,254.75536c0,12.78 -10.36,23.139 -23.139,23.139c-12.78,0 -23.139,-10.36 -23.139,-23.139c0,-12.78 10.36,-23.139 23.139,-23.139c12.78,0 23.139,10.36 23.139,23.139z" fill="#666666" id="path8022" transform="matrix(0 -0.9459 0.9459 0 -856.03 -56.869)"/>
     </g>
     <rect fill="url(#linearGradient4797)" height="24.41" id="rect8034" width="7.0319" x="450.403368" y="449.997191"/>
     <g id="g8036" transform="translate(0 1.9925)">
      <g fill="#4d4d4d" id="g8038" transform="matrix(0.3022 0 0 0.34216 171.27 247.6)">
       <path d="m1015.865501,255.735021l-6.8665,-12.043l13.733,0l-6.8665,12.043z" fill="#4d4d4d" id="path8040"/>
       <rect fill="#4d4d4d" height="12.856" id="rect8042" width="4.4995" x="1013.155501" y="232.935021"/>
      </g>
      <path d="m474.353368,343.327191l7.6876,0m0.10296,0.0311c0.54967,0 0.99528,1.5023 0.99528,3.3555s-0.44561,3.3555 -1.0468,3.371l-7.7391,0.0155m1.0296,-3.3866c0,1.8532 -0.4456,3.3555 -0.99528,3.3555c-0.54967,0 -0.99527,-1.5023 -0.99527,-3.3555s0.4456,-3.3555 0.99527,-3.3555c0.54968,0 0.99528,1.5023 0.99528,3.3555z" fill="none" id="path8044" stroke="#009c00" stroke-linecap="square" stroke-width="0.53704"/>
      <g id="g8046" stroke="#6d635b" stroke-width="1.9223" transform="matrix(0.33836 0 0 0.28792 151.58 302.32)">
       <path d="m953.271097,196.40341l23.997,0m0.3214,0.10713c1.7158,0 3.1068,5.1802 3.1068,11.57c0,6.39 -1.391,11.57 -3.2675,11.624l-24.158,0.0536m3.214,-11.677c0,6.39 -1.391,11.57 -3.1068,11.57s-3.1068,-5.1802 -3.1068,-11.57c0,-6.39 1.391,-11.57 3.1068,-11.57s3.1068,5.1802 3.1068,11.57z" fill="none" id="path8048" stroke="#6d635b" stroke-linecap="square" stroke-width="1.9223"/>
       <g fill="#b3b3b3" id="g8050" stroke="#6d635b" stroke-width="2.1851" transform="matrix(0.87975 0 0 0.87975 40.194 40.619)">
        <path d="m1403.029417,497.636061l39.55,-35.45" fill="#b3b3b3" id="path8052" stroke="#6d635b" stroke-linecap="square" stroke-width="2.1851" transform="translate(-371.04 -289.56)"/>
        <path d="m1071.539417,208.076061l-39.54,-35.45" fill="#b3b3b3" id="path8054" stroke="#6d635b" stroke-linecap="square" stroke-width="2.1851"/>
       </g>
      </g>
     </g>
     <g id="g8056" transform="matrix(0 1 -1 0 704.42 193.11)">
      <g id="g8058" transform="matrix(0 -1.0469 1.0223 0 -178.17 699.9)">
       <rect fill="#333333" height="60.552" id="rect8060" rx="4.7462" ry="4.9986" stroke="#000000" stroke-width="0.8" width="43.081" x="421.285249" y="356.769627"/>
       <g id="g8062">
        <path d="m442.955249,357.059627l16.359,0c2.5589,0 4.6189,2.2032 4.6189,4.94l0,49.962c0,2.7367 -2.06,4.94 -4.6189,4.94l-16.359,0" fill="#b3b3b3" id="path8064"/>
        <path d="m442.685249,357.349627l0,59.258" fill="#0000ff" id="path8066" stroke="#0000ff" stroke-width="0.5595"/>
       </g>
      </g>
      <g fill="#ffffff" id="text8068" stroke="#000000" stroke-width="0.46868px" transform="translate(6 0) scale(0.98817 1.012)">
       <path d="m198.578481,242.515935l0.82385,-0.10984c0.0946,0.46685 0.25554,0.80325 0.48286,1.0092c0.22732,0.20597 0.50423,0.30895 0.83072,0.30895c0.38751,0 0.71476,-0.13426 0.98176,-0.40277c0.26698,-0.26852 0.40047,-0.60111 0.40048,-0.99778c-0.00001,-0.37836 -0.12358,-0.69035 -0.37073,-0.93598c-0.24716,-0.24563 -0.56145,-0.36844 -0.94286,-0.36845c-0.15561,0.00001 -0.34937,0.0305 -0.58127,0.0915l0.0915,-0.72316c0.0549,0.006 0.0992,0.009 0.13273,0.009c0.3509,0 0.66671,-0.0915 0.94743,-0.27462c0.28072,-0.18307 0.42108,-0.46532 0.42108,-0.84673c0,-0.30208 -0.10222,-0.55228 -0.30666,-0.75062c-0.20444,-0.19833 -0.46837,-0.2975 -0.79181,-0.29751c-0.32039,0.00001 -0.58737,0.1007 -0.80096,0.30208c-0.2136,0.20139 -0.3509,0.50347 -0.41193,0.90624l-0.82385,-0.14646c0.10069,-0.55228 0.32954,-0.98023 0.68654,-1.2838c0.357,-0.3036 0.80097,-0.4554 1.3319,-0.4554c0.36616,0 0.70333,0.0786 1.0115,0.23571c0.30818,0.15715 0.54389,0.3715 0.70714,0.64306c0.16324,0.27157 0.24486,0.55992 0.24487,0.86504c-0.00001,0.28988 -0.0778,0.55382 -0.23343,0.79181c-0.15562,0.23801 -0.38599,0.42719 -0.69112,0.56755c0.39667,0.0915 0.70485,0.28148 0.92455,0.56983c0.21968,0.28835 0.32953,0.64916 0.32954,1.0824c-0.00001,0.58586 -0.2136,1.0824 -0.64078,1.4898c-0.42718,0.40735 -0.96726,0.61102 -1.6202,0.61102c-0.5889,0 -1.0779,-0.17545 -1.4669,-0.52635c-0.38904,-0.35089 -0.61102,-0.80554 -0.66594,-1.3639l-0.00001,0.00018z" fill="#ffffff" id="path3206"/>
       <path d="m203.788481,240.975935c0,-0.79333 0.0816,-1.4318 0.24487,-1.9154c0.16324,-0.48363 0.40582,-0.85665 0.72773,-1.1191c0.32191,-0.2624 0.72697,-0.39361 1.2152,-0.39361c0.36005,0 0.67586,0.0725 0.94743,0.2174c0.27156,0.14494 0.49583,0.35396 0.67281,0.62704c0.17697,0.2731 0.31581,0.60569 0.4165,0.99778s0.15104,0.92073 0.15104,1.5859c0,0.78724 -0.0809,1.4227 -0.24258,1.9063c-0.16172,0.48363 -0.40353,0.85741 -0.72544,1.1214c-0.32192,0.26394 -0.7285,0.39591 -1.2198,0.39591c-0.64688,0 -1.1549,-0.2319 -1.5241,-0.6957c-0.44244,-0.55839 -0.66366,-1.4677 -0.66366,-2.7279l0,-0.00002zm0.84673,0c0,1.1015 0.12892,1.8346 0.38676,2.1992c0.25783,0.36463 0.57593,0.54695 0.95429,0.54695s0.69646,-0.18308 0.95429,-0.54924c0.25784,-0.36615 0.38675,-1.0985 0.38676,-2.1969c-0.00001,-1.1046 -0.12892,-1.8384 -0.38676,-2.2015c-0.25783,-0.3631 -0.57898,-0.54465 -0.96344,-0.54466c-0.37837,0.00001 -0.68044,0.1602 -0.90624,0.48058c-0.28377,0.40888 -0.42566,1.1641 -0.42566,2.2656l0,-0.00003z" fill="#ffffff" id="path3208"/>
       <path d="m209.008481,240.975935c0,-0.79333 0.0816,-1.4318 0.24487,-1.9154c0.16324,-0.48363 0.40582,-0.85665 0.72773,-1.1191c0.32191,-0.2624 0.72697,-0.39361 1.2152,-0.39361c0.36005,0 0.67586,0.0725 0.94743,0.2174c0.27156,0.14494 0.49583,0.35396 0.67281,0.62704c0.17697,0.2731 0.31581,0.60569 0.4165,0.99778s0.15104,0.92073 0.15104,1.5859c0,0.78724 -0.0809,1.4227 -0.24258,1.9063c-0.16172,0.48363 -0.40353,0.85741 -0.72544,1.1214c-0.32192,0.26394 -0.7285,0.39591 -1.2198,0.39591c-0.64688,0 -1.1549,-0.2319 -1.5241,-0.6957c-0.44244,-0.55839 -0.66366,-1.4677 -0.66366,-2.7279l0,-0.00002zm0.84674,0c-0.00001,1.1015 0.12891,1.8346 0.38675,2.1992c0.25783,0.36463 0.57593,0.54695 0.95429,0.54695s0.69646,-0.18308 0.95429,-0.54924c0.25784,-0.36615 0.38675,-1.0985 0.38676,-2.1969c-0.00001,-1.1046 -0.12892,-1.8384 -0.38676,-2.2015c-0.25783,-0.3631 -0.57898,-0.54465 -0.96344,-0.54466c-0.37837,0.00001 -0.68044,0.1602 -0.90624,0.48058c-0.28377,0.40888 -0.42566,1.1641 -0.42565,2.2656l0,-0.00003z" fill="#ffffff" id="path3210"/>
       <path d="m220.298481,241.655935l0,-0.78724l2.8423,-0.005l0,2.4899c-0.43635,0.34784 -0.88641,0.60949 -1.3502,0.78494c-0.46381,0.17545 -0.93981,0.26318 -1.428,0.26318c-0.65909,0 -1.2579,-0.14113 -1.7964,-0.42337c-0.53856,-0.28225 -0.94514,-0.69036 -1.2198,-1.2243c-0.27462,-0.53398 -0.41193,-1.1305 -0.41193,-1.7896c0,-0.65298 0.13655,-1.2625 0.40964,-1.8285c0.27309,-0.56601 0.66595,-0.98633 1.1786,-1.261c0.51261,-0.27461 1.103,-0.41192 1.7713,-0.41193c0.48516,0.00001 0.92378,0.0786 1.3159,0.23572c0.39208,0.15714 0.6995,0.37608 0.92225,0.65679c0.22274,0.28072 0.39209,0.64688 0.50804,1.0985l-0.80096,0.21969c-0.1007,-0.34174 -0.2258,-0.61026 -0.37531,-0.80554c-0.14952,-0.19528 -0.36311,-0.35166 -0.64078,-0.46914c-0.27767,-0.11747 -0.58585,-0.17621 -0.92454,-0.17621c-0.40583,0 -0.75672,0.0618 -1.0527,0.18536c-0.29598,0.12359 -0.53474,0.28607 -0.71629,0.48745c-0.18155,0.20139 -0.32268,0.42261 -0.42337,0.66366c-0.17087,0.41498 -0.25631,0.86504 -0.25631,1.3502c0,0.59805 0.10298,1.0985 0.30895,1.5012c0.20596,0.40278 0.50575,0.7018 0.89937,0.89709c0.39361,0.19528 0.81164,0.29292 1.2541,0.29292c0.38446,0 0.75977,-0.074 1.1259,-0.22198c0.36615,-0.14799 0.64382,-0.30589 0.83301,-0.47372l0,-1.2495l-1.97277,0.00043z" fill="#ffffff" id="path3212"/>
       <path d="m224.408481,244.285935l0,-6.7098l2.5173,0c0.51262,0 0.92378,0.0679 1.2335,0.20367c0.3097,0.13579 0.55228,0.3448 0.72773,0.62704c0.17545,0.28225 0.26317,0.57747 0.26318,0.88564c-0.00001,0.28683 -0.0778,0.55687 -0.23343,0.81012c-0.15562,0.25326 -0.39057,0.4577 -0.70485,0.61331c0.40582,0.11901 0.71782,0.32192 0.93599,0.60874c0.21816,0.28682 0.32725,0.62552 0.32725,1.0161c0,0.31429 -0.0664,0.60645 -0.1991,0.87649c-0.13273,0.27004 -0.29674,0.47829 -0.49202,0.62475c-0.19529,0.14646 -0.44015,0.25707 -0.7346,0.33183c-0.29445,0.0747 -0.65527,0.11213 -1.0824,0.11213l-2.55855,-0.00002zm0.88793,-3.8904l1.4509,0c0.39361,0 0.67586,-0.0259 0.84674,-0.0778c0.22579,-0.0671 0.3959,-0.1785 0.51033,-0.33412c0.11441,-0.15561 0.17163,-0.35089 0.17163,-0.58585c0,-0.22274 -0.0534,-0.41878 -0.16019,-0.58814c-0.1068,-0.16934 -0.25937,-0.28529 -0.4577,-0.34784c-0.19834,-0.0625 -0.53855,-0.0938 -1.0207,-0.0938l-1.341,0l-0.00001,2.02755zm0,3.0986l1.6706,0c0.28682,0 0.48821,-0.0107 0.60416,-0.032c0.20443,-0.0366 0.37531,-0.0976 0.51262,-0.18308c0.1373,-0.0854 0.2502,-0.20977 0.33869,-0.37302c0.0885,-0.16324 0.13273,-0.35166 0.13273,-0.56525c0,-0.2502 -0.0641,-0.46761 -0.19223,-0.65221c-0.12816,-0.18461 -0.30589,-0.31429 -0.53321,-0.38905c-0.22733,-0.0747 -0.55458,-0.11213 -0.98176,-0.11213l-1.5516,0l0,2.30674z" fill="#ffffff" id="path3214"/>
      </g>
      <g fill="none" id="text8072" stroke="#000000" stroke-width="0.92873px" transform="translate(6 0) scale(1.0514 0.95108)">
       <path d="m185.866187,267.71832l0,-0.42445c-0.22493,0.3265 -0.53057,0.48975 -0.91694,0.48975c-0.17051,0 -0.32968,-0.0326 -0.47751,-0.0979c-0.14784,-0.0653 -0.25758,-0.14738 -0.32923,-0.24624c-0.0717,-0.0989 -0.12198,-0.21993 -0.15101,-0.36323c-0.0199,-0.0961 -0.0299,-0.24851 -0.0299,-0.45711l0,-1.7903l0.48976,0l0,1.6026c0,0.25576 0.01,0.42808 0.0299,0.51696c0.0308,0.12879 0.0961,0.22992 0.19591,0.30338c0.0998,0.0735 0.22311,0.1102 0.37004,0.1102c0.14692,0 0.28478,-0.0376 0.41357,-0.11292c0.12879,-0.0753 0.21993,-0.17776 0.27345,-0.30746c0.0535,-0.12969 0.0803,-0.31789 0.0803,-0.56458l0,-1.5482l0.48976,0l0,2.8896l-0.4381,-0.0001z" fill="#cccccc" id="path3217"/>
       <path d="m187.066187,267.71832l0,-3.9888l0.48976,0l0,3.9888l-0.48976,0z" fill="#cccccc" id="path3219"/>
       <path d="m189.386187,267.27832l0.0707,0.43262c-0.13786,0.029 -0.2612,0.0435 -0.37004,0.0435c-0.17776,0 -0.31562,-0.0281 -0.41357,-0.0843c-0.0979,-0.0562 -0.16688,-0.13015 -0.20679,-0.22175c-0.0399,-0.0916 -0.0599,-0.28433 -0.0599,-0.57819l0,-1.6625l-0.35915,0l0,-0.38092l0.35915,0l0,-0.71559l0.48704,-0.29386l0,1.0094l0.49248,0l0,0.38092l-0.49248,0l0,1.6897c0,0.13967 0.009,0.22946 0.0259,0.26937c0.0172,0.0399 0.0453,0.0717 0.0844,0.0952c0.039,0.0236 0.0948,0.0354 0.16733,0.0354c0.0544,0 0.12607,-0.006 0.21495,-0.019l-0.00002,0z" fill="#cccccc" id="path3221"/>
       <path d="m189.856187,267.71832l0,-2.8896l0.44079,0l0,0.43806c0.11246,-0.20497 0.2163,-0.34011 0.31154,-0.40541c0.0952,-0.0653 0.19998,-0.098 0.31426,-0.098c0.16506,0 0.33285,0.0526 0.50336,0.15781l-0.16869,0.45439c-0.11972,-0.0708 -0.23944,-0.10612 -0.35916,-0.10612c-0.10702,0 -0.20316,0.0322 -0.28841,0.0966c-0.0853,0.0644 -0.14603,0.15373 -0.1823,0.26801c-0.0544,0.17414 -0.0816,0.3646 -0.0816,0.57138l0,1.5128l-0.48979,0.00008z" fill="#cccccc" id="path3223"/>
       <path d="m193.616187,267.35832c-0.1814,0.15418 -0.35599,0.26302 -0.52377,0.3265c-0.16779,0.0635 -0.34782,0.0952 -0.5401,0.0952c-0.31743,0 -0.56141,-0.0775 -0.73191,-0.23263c-0.17051,-0.15509 -0.25577,-0.35326 -0.25577,-0.59451c0,-0.14149 0.0322,-0.27073 0.0966,-0.38773s0.14875,-0.21087 0.25305,-0.28161c0.1043,-0.0707 0.22175,-0.12425 0.35235,-0.16053c0.0961,-0.0254 0.24125,-0.0499 0.43534,-0.0735c0.39543,-0.0472 0.68657,-0.10339 0.8734,-0.16869c0.002,-0.0671 0.003,-0.10974 0.003,-0.12788c-0.00001,-0.19953 -0.0463,-0.34011 -0.13877,-0.42174c-0.12516,-0.11064 -0.31109,-0.16597 -0.55778,-0.16597c-0.23037,0 -0.40042,0.0404 -0.51017,0.12108c-0.10974,0.0807 -0.19091,0.22357 -0.24351,0.42854l-0.47888,-0.0653c0.0435,-0.20497 0.11518,-0.37049 0.21495,-0.49656c0.0998,-0.12606 0.24397,-0.22311 0.43262,-0.29113c0.18865,-0.068 0.40722,-0.10203 0.65573,-0.10203c0.24669,0 0.44713,0.029 0.60132,0.0871c0.15418,0.0581 0.26755,0.13106 0.34011,0.21904c0.0725,0.088 0.12334,0.19908 0.15237,0.3333c0.0163,0.0834 0.0245,0.234 0.0245,0.45167l0,0.65301c-0.00001,0.4553 0.0104,0.74326 0.0313,0.86388c0.0208,0.12063 0.0621,0.23626 0.1238,0.34691l-0.51153,0c-0.0508,-0.10158 -0.0834,-0.22039 -0.0979,-0.35643l-0.00035,0.00001zm-0.0408,-1.0938c-0.17776,0.0726 -0.44441,0.13424 -0.79993,0.18502c-0.20135,0.029 -0.34374,0.0617 -0.42718,0.098c-0.0834,0.0363 -0.14784,0.0893 -0.19319,0.15917c-0.0453,0.0698 -0.068,0.14738 -0.068,0.23263c0,0.13061 0.0494,0.23944 0.14829,0.32651c0.0989,0.0871 0.24352,0.1306 0.43398,0.1306c0.18865,0 0.35644,-0.0413 0.50336,-0.1238c0.14693,-0.0825 0.25486,-0.19545 0.32379,-0.33875c0.0526,-0.11065 0.0789,-0.2739 0.0789,-0.48976l-0.00002,-0.17962z" fill="#cccccc" id="path3225"/>
       <path d="m194.696187,266.66832l0.48976,-0.0653c0.0562,0.27753 0.15191,0.47752 0.28705,0.59996s0.29975,0.18366 0.49384,0.18366c0.23037,0 0.42491,-0.0798 0.58363,-0.23944c0.15872,-0.15963 0.23807,-0.35734 0.23808,-0.59315c-0.00001,-0.22493 -0.0735,-0.4104 -0.22039,-0.55642c-0.14693,-0.14602 -0.33377,-0.21903 -0.56051,-0.21904c-0.0925,0.00001 -0.20769,0.0182 -0.34555,0.0544l0.0544,-0.4299c0.0326,0.004 0.059,0.005 0.0789,0.005c0.2086,0.00001 0.39634,-0.0544 0.56323,-0.16325c0.16688,-0.10883 0.25032,-0.27662 0.25032,-0.50336c0,-0.17958 -0.0608,-0.32832 -0.1823,-0.44623c-0.12154,-0.1179 -0.27844,-0.17685 -0.47071,-0.17685c-0.19047,0 -0.34918,0.0599 -0.47616,0.17958c-0.12697,0.11972 -0.2086,0.2993 -0.24488,0.53873l-0.48976,-0.0871c0.0599,-0.32831 0.19591,-0.58272 0.40814,-0.76321c0.21222,-0.18048 0.47615,-0.27072 0.79177,-0.27072c0.21767,0 0.41811,0.0467 0.60132,0.14012c0.1832,0.0934 0.32333,0.22085 0.42037,0.38229c0.097,0.16144 0.14557,0.33285 0.14557,0.51424c0,0.17233 -0.0463,0.32923 -0.13876,0.47071c-0.0925,0.14149 -0.22947,0.25396 -0.41086,0.33739c0.23581,0.0544 0.41902,0.16734 0.54962,0.33875c0.1306,0.17142 0.1959,0.38592 0.1959,0.64349c0,0.34828 -0.12697,0.64349 -0.38092,0.88565s-0.57501,0.36324 -0.96319,0.36324c-0.35009,0 -0.64077,-0.1043 -0.87204,-0.3129c-0.23128,-0.20861 -0.36324,-0.47888 -0.39589,-0.81083l0.00002,0.00049z" fill="#cccccc" id="path3227"/>
       <path d="m200.366187,267.24832l0,0.47071l-2.6365,0c-0.004,-0.1179 0.0154,-0.23127 0.0571,-0.34011c0.0671,-0.17957 0.17459,-0.35643 0.32243,-0.53057c0.14783,-0.17413 0.36142,-0.37548 0.64076,-0.60403c0.43353,-0.35553 0.72648,-0.63714 0.87885,-0.84484c0.15236,-0.20769 0.22855,-0.40405 0.22855,-0.58907c0,-0.19408 -0.0694,-0.35779 -0.20815,-0.49112c-0.13876,-0.13332 -0.3197,-0.19998 -0.54281,-0.19998c-0.23581,0 -0.42446,0.0707 -0.56594,0.21223c-0.14149,0.14149 -0.21314,0.33739 -0.21495,0.58771l-0.50337,-0.0517c0.0345,-0.37548 0.16416,-0.66162 0.38909,-0.85844c0.22492,-0.1968 0.52694,-0.29521 0.90605,-0.29521c0.38274,0 0.68566,0.10611 0.90878,0.31834c0.22311,0.21223 0.33466,0.47525 0.33466,0.78906c0,0.15962 -0.0326,0.31653 -0.0979,0.47071s-0.17368,0.31653 -0.32514,0.48704c-0.15147,0.17051 -0.40315,0.4045 -0.75505,0.70198c-0.29385,0.2467 -0.4825,0.41403 -0.56594,0.50201c-0.0834,0.088 -0.15237,0.1764 -0.20679,0.26528l1.95627,0z" fill="#cccccc" id="path3229"/>
       <path d="m200.896187,265.74832c0,-0.47162 0.0485,-0.85118 0.14556,-1.1387c0.097,-0.28751 0.24125,-0.50926 0.43262,-0.66526c0.19137,-0.15599 0.43217,-0.23399 0.7224,-0.23399c0.21404,0 0.40178,0.0431 0.56322,0.12924c0.16144,0.0862 0.29476,0.21042 0.39997,0.37276c0.1052,0.16235 0.18774,0.36007 0.2476,0.59315c0.0599,0.23309 0.0898,0.54735 0.0898,0.94279c0,0.46799 -0.0481,0.84574 -0.14421,1.1332c-0.0961,0.28751 -0.23989,0.50972 -0.43126,0.66662s-0.43307,0.23536 -0.72511,0.23536c-0.38455,0 -0.68657,-0.13786 -0.90606,-0.41358c-0.26301,-0.33194 -0.39452,-0.87249 -0.39452,-1.6216l-0.00001,0.00001zm0.50336,0c0,0.65482 0.0766,1.0906 0.22991,1.3074c0.15328,0.21676 0.34238,0.32515 0.56731,0.32515c0.22492,0 0.41402,-0.10884 0.5673,-0.32651s0.22991,-0.65301 0.22992,-1.306c-0.00001,-0.65664 -0.0766,-1.0929 -0.22992,-1.3088c-0.15328,-0.21585 -0.34419,-0.32378 -0.57274,-0.32378c-0.22493,0 -0.40451,0.0952 -0.53874,0.28569c-0.16869,0.24307 -0.25304,0.69201 -0.25304,1.3468l0,0.00005z" fill="#cccccc" id="path3231"/>
       <path d="m205.566187,266.43832l0.49792,-0.0435c0.0236,0.19954 0.0785,0.36324 0.16461,0.49112c0.0862,0.12789 0.21994,0.23128 0.40133,0.31018s0.38546,0.11836 0.6122,0.11836c0.20134,0 0.37911,-0.0299 0.53329,-0.0898c0.15419,-0.0599 0.26892,-0.14194 0.3442,-0.24624c0.0753,-0.1043 0.11291,-0.21812 0.11291,-0.34147c0,-0.12516 -0.0363,-0.23444 -0.10883,-0.32786c-0.0726,-0.0934 -0.19228,-0.17187 -0.35916,-0.23536c-0.10702,-0.0417 -0.34374,-0.10657 -0.71015,-0.19454c-0.36641,-0.088 -0.62308,-0.17096 -0.77001,-0.24896c-0.19046,-0.0998 -0.3324,-0.22357 -0.42582,-0.3714c-0.0934,-0.14784 -0.14012,-0.31336 -0.14012,-0.49656c0,-0.20135 0.0571,-0.38954 0.17141,-0.56459c0.11428,-0.17504 0.28116,-0.30791 0.50065,-0.39861c0.21948,-0.0907 0.46345,-0.13604 0.73191,-0.13604c0.29567,0 0.55642,0.0476 0.78226,0.14285c0.22583,0.0952 0.39951,0.23536 0.52105,0.42037c0.12152,0.18503 0.18683,0.39453 0.1959,0.62853l-0.50609,0.0381c-0.0272,-0.25213 -0.11926,-0.4426 -0.27616,-0.57139c-0.15691,-0.12878 -0.38864,-0.19318 -0.69519,-0.19318c-0.31925,0 -0.55189,0.0585 -0.69791,0.1755s-0.21903,0.25803 -0.21903,0.42309c0,0.14331 0.0517,0.26121 0.15509,0.35372c0.10158,0.0925 0.36687,0.18729 0.79586,0.28433c0.42899,0.097 0.7233,0.18185 0.88293,0.2544c0.23218,0.10703 0.40359,0.24262 0.51424,0.40678s0.16597,0.35326 0.16598,0.5673c-0.00001,0.21223 -0.0608,0.41221 -0.1823,0.59995c-0.12154,0.18774 -0.29613,0.33376 -0.52377,0.43807c-0.22765,0.1043 -0.48387,0.15645 -0.76865,0.15645c-0.36097,0 -0.66344,-0.0526 -0.90741,-0.15782c-0.24398,-0.1052 -0.43535,-0.26347 -0.57411,-0.47479c-0.13877,-0.21132 -0.21178,-0.4503 -0.21903,-0.71695l0,-0.00004z" fill="#cccccc" id="path3233"/>
       <path d="m212.306187,266.31832l0.52785,0.13332c-0.11066,0.43353 -0.30973,0.76412 -0.59724,0.99177c-0.28751,0.22764 -0.63895,0.34147 -1.0543,0.34147c-0.4299,0 -0.77953,-0.0875 -1.0489,-0.26257c-0.26937,-0.17504 -0.47434,-0.42854 -0.61492,-0.76049c-0.14058,-0.33194 -0.21087,-0.68838 -0.21087,-1.0693c0,-0.41539 0.0794,-0.77772 0.23808,-1.087c0.15872,-0.30927 0.38455,-0.54418 0.6775,-0.70471s0.61537,-0.2408 0.96727,-0.2408c0.39906,0 0.73464,0.10158 1.0067,0.30474c0.27208,0.20316 0.46164,0.48885 0.56866,0.85708l-0.51968,0.12244c-0.0925,-0.29023 -0.22675,-0.50155 -0.40269,-0.63397c-0.17596,-0.13241 -0.39726,-0.19862 -0.6639,-0.19862c-0.30655,0 -0.56277,0.0735 -0.76865,0.22039c-0.20588,0.14693 -0.35054,0.34419 -0.43398,0.59179c-0.0834,0.2476 -0.12516,0.50291 -0.12516,0.76593c0,0.3392 0.0494,0.63532 0.14829,0.88836c0.0989,0.25305 0.25259,0.44215 0.46119,0.56731s0.43443,0.18774 0.6775,0.18774c0.29566,0 0.54598,-0.0852 0.75096,-0.25576c0.20497,-0.17051 0.34373,-0.42355 0.4163,-0.75913l-0.00001,0.00001z" fill="#cccccc" id="path3235"/>
       <path d="m213.306187,266.43832l0.49792,-0.0435c0.0236,0.19954 0.0785,0.36324 0.16461,0.49112c0.0862,0.12789 0.21994,0.23128 0.40133,0.31018s0.38546,0.11836 0.6122,0.11836c0.20134,0 0.37911,-0.0299 0.53329,-0.0898s0.26891,-0.14194 0.3442,-0.24624c0.0753,-0.1043 0.11291,-0.21812 0.11291,-0.34147c0,-0.12516 -0.0363,-0.23444 -0.10883,-0.32786c-0.0726,-0.0934 -0.19228,-0.17187 -0.35916,-0.23536c-0.10702,-0.0417 -0.34374,-0.10657 -0.71015,-0.19454c-0.36641,-0.088 -0.62308,-0.17096 -0.77001,-0.24896c-0.19046,-0.0998 -0.3324,-0.22357 -0.42582,-0.3714c-0.0934,-0.14784 -0.14012,-0.31336 -0.14012,-0.49656c0,-0.20135 0.0571,-0.38954 0.17141,-0.56459c0.11428,-0.17504 0.28116,-0.30791 0.50065,-0.39861c0.21948,-0.0907 0.46345,-0.13604 0.73191,-0.13604c0.29567,0 0.55642,0.0476 0.78226,0.14285c0.22583,0.0952 0.39951,0.23536 0.52104,0.42037c0.12153,0.18503 0.18683,0.39453 0.19591,0.62853l-0.50609,0.0381c-0.0272,-0.25213 -0.11926,-0.4426 -0.27617,-0.57139c-0.1569,-0.12878 -0.38863,-0.19318 -0.69518,-0.19318c-0.31925,0 -0.55189,0.0585 -0.69791,0.1755s-0.21903,0.25803 -0.21903,0.42309c0,0.14331 0.0517,0.26121 0.15509,0.35372c0.10158,0.0925 0.36687,0.18729 0.79586,0.28433c0.42899,0.097 0.7233,0.18185 0.88293,0.2544c0.23218,0.10703 0.40359,0.24262 0.51424,0.40678s0.16597,0.35326 0.16598,0.5673c-0.00001,0.21223 -0.0608,0.41221 -0.1823,0.59995c-0.12154,0.18774 -0.29613,0.33376 -0.52377,0.43807c-0.22765,0.1043 -0.48387,0.15645 -0.76865,0.15645c-0.36097,0 -0.66344,-0.0526 -0.90741,-0.15782c-0.24398,-0.1052 -0.43535,-0.26347 -0.57411,-0.47479c-0.13877,-0.21132 -0.21178,-0.4503 -0.21903,-0.71695l0,-0.00004z" fill="#cccccc" id="path3237"/>
       <path d="m217.306187,267.71832l0,-3.9888l0.52785,0l0,3.9888l-0.52785,0z" fill="#cccccc" id="path3239"/>
      </g>
      <g fill="none" id="text8076" stroke="#000000" stroke-width="0.282px" transform="translate(6 0) scale(0.99783 1.0022)">
       <path d="m233.901142,242.293013l-0.4957,0l0,-3.1587c-0.11934,0.11383 -0.27585,0.22766 -0.46955,0.34148c-0.19369,0.11384 -0.36764,0.19921 -0.52186,0.25612l0,-0.47918c0.27722,-0.13035 0.51957,-0.28824 0.72703,-0.47368c0.20746,-0.18542 0.35434,-0.36535 0.44063,-0.53977l0.31945,0l0,4.05373z" fill="#e6e6e6" id="path3242"/>
       <path d="m235.171142,241.243013l0.52049,-0.0441c0.0386,0.25336 0.12806,0.44384 0.26851,0.57144c0.14045,0.12759 0.30982,0.19139 0.5081,0.19139c0.23867,0 0.44063,-0.09 0.60586,-0.26988c0.16524,-0.17992 0.24785,-0.4186 0.24786,-0.71602c-0.00001,-0.28273 -0.0794,-0.5058 -0.23822,-0.6692c-0.15881,-0.1634 -0.36673,-0.2451 -0.62376,-0.2451c-0.15973,0 -0.30385,0.0363 -0.43237,0.10878c-0.12851,0.0725 -0.22949,0.16661 -0.30293,0.28227l-0.46541,-0.0606l0.39106,-2.0737l2.0076,0l0,0.47367l-1.611,0l-0.21756,1.085c0.24234,-0.16891 0.49662,-0.25336 0.76284,-0.25337c0.3525,0.00001 0.64992,0.1221 0.89227,0.36628c0.24234,0.24418 0.36351,0.55813 0.36351,0.94184c0,0.36535 -0.10648,0.68113 -0.31945,0.94734c-0.25887,0.3268 -0.61229,0.4902 -1.0603,0.4902c-0.36719,0 -0.66691,-0.10281 -0.89915,-0.30844c-0.23225,-0.20562 -0.3649,-0.47826 -0.39795,-0.81791l0,0.00011z" fill="#e6e6e6" id="path3244"/>
       <path d="m238.451142,242.293013l0,-4.0372l0.49571,0l0,2.3023l1.1732,-1.1897l0.64166,0l-1.1181,1.085l1.231,1.8396l-0.61137,0l-0.96662,-1.4954l-0.34975,0.33597l0,1.1594l-0.49573,0.00003z" fill="#e6e6e6" id="path3246"/>
      </g>
     </g>
    </g>
    <use height="262.5" id="use8096" transform="translate(58.503 0)" width="950" x="0" xlink:href="#g8004" y="0"/>
    <use height="262.5" id="use8098" transform="translate(117.01 0)" width="950" x="0" xlink:href="#g8004" y="0"/>
    <use height="262.5" id="use8100" transform="translate(175.51 0)" width="950" x="0" xlink:href="#g8004" y="0"/>
    <use height="262.5" id="use8102" transform="translate(234.01 0)" width="950" x="0" xlink:href="#g8004" y="0"/>
    <use height="262.5" id="use8104" transform="translate(292.51 0)" width="950" x="0" xlink:href="#g8004" y="0"/>
    <use height="262.5" id="use8106" transform="translate(351.02 0)" width="950" x="0" xlink:href="#g8004" y="0"/>
    <use height="262.5" id="use8108" transform="translate(409.52 0)" width="950" x="0" xlink:href="#g8004" y="0"/>
    <use height="262.5" id="use8110" transform="translate(468.02 0)" width="950" x="0" xlink:href="#g8004" y="0"/>
    <use height="262.5" id="use8112" transform="translate(526.52 0)" width="950" x="0" xlink:href="#g8004" y="0"/>
    <use height="262.5" id="use8114" transform="translate(585.03 0)" width="950" x="0" xlink:href="#g8004" y="0"/>
    <use height="262.5" id="use8116" transform="translate(643.53 0)" width="950" x="0" xlink:href="#g8004" y="0"/>
    <use height="262.5" id="use8118" transform="translate(702.03 0)" width="950" x="0" xlink:href="#g8004" y="0"/>
    <use height="262.5" id="use8120" transform="translate(760.53 0)" width="950" x="0" xlink:href="#g8004" y="0"/>
    <g id="g4572" transform="translate(0 -0.0000045786)">
     <g id="g4522" transform="translate(-355.98 252.12)">
      <path d="m336.96286,-227.402935c0,4.4574 -3.6134,8.0708 -8.0708,8.0708s-8.0708,-3.6134 -8.0708,-8.0708s3.6134,-8.0708 8.0708,-8.0708s8.0708,3.6134 8.0708,8.0708z" fill="#1a1a1a" filter="url(#filter4518)" id="path4459" opacity="0.76852" transform="matrix(1.3058 0.7128 -0.88891 1.5887 -412.42 -398.9)"/>
      <g id="g4375" transform="matrix(0.17274 0 0 0.17274 -47.05 -521.77)">
       <path d="m1179.374077,232.485158l-12.654,-3.7725l1.2314,13.147l-11.675,-6.1687l-1.3571,13.134l-10.247,-8.3278l-3.8934,12.617l-8.4254,-10.167l-6.2801,11.615l-6.2801,-11.615l-8.4254,10.167l-3.8934,-12.617l-10.247,8.3278l-1.3571,-13.134l-11.675,6.1687l1.2314,-13.147l-12.654,3.7725l3.7725,-12.654l-13.147,1.2314l6.1687,-11.675l-13.134,-1.3571l8.3278,-10.247l-12.617,-3.8934l10.167,-8.4254l-11.615,-6.2801l11.615,-6.2801l-10.167,-8.4254l12.617,-3.8934l-8.3278,-10.247l13.134,-1.3571l-6.1687,-11.675l13.147,1.2314l-3.7725,-12.654l12.654,3.7725l-1.2314,-13.147l11.675,6.1687l1.3571,-13.134l10.247,8.3278l3.8934,-12.617l8.4254,10.167l6.2801,-11.615l6.2801,11.615l8.4254,-10.167l3.8934,12.617l10.247,-8.3278l1.3571,13.134l11.675,-6.1687l-1.2314,13.147l12.654,-3.7725l-3.7725,12.654l13.147,-1.2314l-6.1687,11.675l13.134,1.3571l-8.3278,10.247l12.617,3.8934l-10.167,8.4254l11.615,6.2801l-11.615,6.2801l10.167,8.4254l-12.617,3.8934l8.3278,10.247l-13.134,1.3571l6.1687,11.675l-13.147,-1.2314l3.7725,12.654z" fill="#b3b3b3" id="path4377" stroke="#000000" stroke-width="0.53916" transform="matrix(1.2563 0 0 1.2563 101.58 -260.84)"/>
       <path d="m1137.328851,299.104322c0,24.853 -20.147,45.001 -45.001,45.001c-24.853,0 -45.001,-20.147 -45.001,-45.001c0,-24.853 20.147,-45.001 45.001,-45.001c24.853,0 45.001,20.147 45.001,45.001z" fill="#b3b3b3" id="path4379" stroke="#666666" stroke-width="0.2749" transform="matrix(1.732 0 0 1.732 -375.64 -553.79)"/>
       <path d="m1406.224077,250.805158c0,24.853 -20.147,45.001 -45.001,45.001c-24.853,0 -45.001,-20.147 -45.001,-45.001c0,-24.853 20.147,-45.001 45.001,-45.001c24.853,0 45.001,20.147 45.001,45.001z" fill="none" id="path4381" stroke="#333333" stroke-width="0.8" transform="matrix(1.2563 0 0 1.2563 -193.82 -350.82)"/>
       <g id="g4383" transform="matrix(-4.7931 0 0 -4.7931 7754.6 7396)">
        <path d="m1304.389355,1555.492626c-1.4775,-0.9199 -3.2848,-1.9215 -5.769,0c0.4,-2.6921 -1.0244,-4.0309 -2.8845,-4.9825c1.8852,-0.8459 3.1957,-2.1989 2.8845,-4.9825c2.0365,1.4935 3.9477,1.3378 5.769,0c-0.3106,2.2053 0.5333,3.9165 2.8845,4.9825c-2.0865,0.6958 -3.0751,2.3334 -2.8845,4.9825z" fill="url(#radialGradient4799)" fill-rule="evenodd" id="path4385" stroke="#4d4d4d" stroke-width="0.2"/>
        <path d="m1142.611851,1608.260056c0,2.9052 -2.3552,5.2603 -5.2604,5.2603c-2.9051,0 -5.2603,-2.3551 -5.2603,-5.2603s2.3552,-5.2603 5.2603,-5.2603c2.9052,0 5.2604,2.3551 5.2604,5.2603z" fill="url(#radialGradient4801)" fill-rule="evenodd" id="path4387" transform="matrix(0.60126 0 0 0.60126 617.65 583.5)"/>
       </g>
      </g>
     </g>
     <g id="g4550" transform="translate(-355.98 406.59)">
      <path d="m336.96286,-227.402935c0,4.4574 -3.6134,8.0708 -8.0708,8.0708s-8.0708,-3.6134 -8.0708,-8.0708s3.6134,-8.0708 8.0708,-8.0708s8.0708,3.6134 8.0708,8.0708z" fill="#1a1a1a" filter="url(#filter4518)" id="path4552" opacity="0.76852" transform="matrix(1.3058 0.7128 -0.88891 1.5887 -412.42 -398.9)"/>
      <g id="g4554" transform="matrix(0.17274 0 0 0.17274 -47.05 -521.77)">
       <path d="m1179.374077,232.485158l-12.654,-3.7725l1.2314,13.147l-11.675,-6.1687l-1.3571,13.134l-10.247,-8.3278l-3.8934,12.617l-8.4254,-10.167l-6.2801,11.615l-6.2801,-11.615l-8.4254,10.167l-3.8934,-12.617l-10.247,8.3278l-1.3571,-13.134l-11.675,6.1687l1.2314,-13.147l-12.654,3.7725l3.7725,-12.654l-13.147,1.2314l6.1687,-11.675l-13.134,-1.3571l8.3278,-10.247l-12.617,-3.8934l10.167,-8.4254l-11.615,-6.2801l11.615,-6.2801l-10.167,-8.4254l12.617,-3.8934l-8.3278,-10.247l13.134,-1.3571l-6.1687,-11.675l13.147,1.2314l-3.7725,-12.654l12.654,3.7725l-1.2314,-13.147l11.675,6.1687l1.3571,-13.134l10.247,8.3278l3.8934,-12.617l8.4254,10.167l6.2801,-11.615l6.2801,11.615l8.4254,-10.167l3.8934,12.617l10.247,-8.3278l1.3571,13.134l11.675,-6.1687l-1.2314,13.147l12.654,-3.7725l-3.7725,12.654l13.147,-1.2314l-6.1687,11.675l13.134,1.3571l-8.3278,10.247l12.617,3.8934l-10.167,8.4254l11.615,6.2801l-11.615,6.2801l10.167,8.4254l-12.617,3.8934l8.3278,10.247l-13.134,1.3571l6.1687,11.675l-13.147,-1.2314l3.7725,12.654z" fill="#b3b3b3" id="path4556" stroke="#000000" stroke-width="0.53916" transform="matrix(1.2563 0 0 1.2563 101.58 -260.84)"/>
       <path d="m1137.328851,299.104322c0,24.853 -20.147,45.001 -45.001,45.001c-24.853,0 -45.001,-20.147 -45.001,-45.001c0,-24.853 20.147,-45.001 45.001,-45.001c24.853,0 45.001,20.147 45.001,45.001z" fill="#b3b3b3" id="path4558" stroke="#666666" stroke-width="0.2749" transform="matrix(1.732 0 0 1.732 -375.64 -553.79)"/>
       <path d="m1406.224077,250.805158c0,24.853 -20.147,45.001 -45.001,45.001c-24.853,0 -45.001,-20.147 -45.001,-45.001c0,-24.853 20.147,-45.001 45.001,-45.001c24.853,0 45.001,20.147 45.001,45.001z" fill="none" id="path4560" stroke="#333333" stroke-width="0.8" transform="matrix(1.2563 0 0 1.2563 -193.82 -350.82)"/>
       <g id="g4562" transform="matrix(-4.7931 0 0 -4.7931 7754.6 7396)">
        <path d="m1304.389355,1555.492626c-1.4775,-0.9199 -3.2848,-1.9215 -5.769,0c0.4,-2.6921 -1.0244,-4.0309 -2.8845,-4.9825c1.8852,-0.8459 3.1957,-2.1989 2.8845,-4.9825c2.0365,1.4935 3.9477,1.3378 5.769,0c-0.3106,2.2053 0.5333,3.9165 2.8845,4.9825c-2.0865,0.6958 -3.0751,2.3334 -2.8845,4.9825z" fill="url(#radialGradient4799)" fill-rule="evenodd" id="path4564" stroke="#4d4d4d" stroke-width="0.2"/>
        <path d="m1142.611851,1608.260056c0,2.9052 -2.3552,5.2603 -5.2604,5.2603c-2.9051,0 -5.2603,-2.3551 -5.2603,-5.2603s2.3552,-5.2603 5.2603,-5.2603c2.9052,0 5.2604,2.3551 5.2604,5.2603z" fill="url(#radialGradient4801)" fill-rule="evenodd" id="path4566" transform="matrix(0.60126 0 0 0.60126 617.65 583.5)"/>
       </g>
      </g>
     </g>
    </g>
    <g id="g4600" transform="translate(914.69 -0.0000045786)">
     <g id="g4602" transform="translate(-355.98 252.12)">
      <path d="m336.96286,-227.402935c0,4.4574 -3.6134,8.0708 -8.0708,8.0708s-8.0708,-3.6134 -8.0708,-8.0708s3.6134,-8.0708 8.0708,-8.0708s8.0708,3.6134 8.0708,8.0708z" fill="#1a1a1a" filter="url(#filter4518)" id="path4604" opacity="0.76852" transform="matrix(1.3058 0.7128 -0.88891 1.5887 -412.42 -398.9)"/>
      <g id="g4606" transform="matrix(0.17274 0 0 0.17274 -47.05 -521.77)">
       <path d="m1179.374077,232.485158l-12.654,-3.7725l1.2314,13.147l-11.675,-6.1687l-1.3571,13.134l-10.247,-8.3278l-3.8934,12.617l-8.4254,-10.167l-6.2801,11.615l-6.2801,-11.615l-8.4254,10.167l-3.8934,-12.617l-10.247,8.3278l-1.3571,-13.134l-11.675,6.1687l1.2314,-13.147l-12.654,3.7725l3.7725,-12.654l-13.147,1.2314l6.1687,-11.675l-13.134,-1.3571l8.3278,-10.247l-12.617,-3.8934l10.167,-8.4254l-11.615,-6.2801l11.615,-6.2801l-10.167,-8.4254l12.617,-3.8934l-8.3278,-10.247l13.134,-1.3571l-6.1687,-11.675l13.147,1.2314l-3.7725,-12.654l12.654,3.7725l-1.2314,-13.147l11.675,6.1687l1.3571,-13.134l10.247,8.3278l3.8934,-12.617l8.4254,10.167l6.2801,-11.615l6.2801,11.615l8.4254,-10.167l3.8934,12.617l10.247,-8.3278l1.3571,13.134l11.675,-6.1687l-1.2314,13.147l12.654,-3.7725l-3.7725,12.654l13.147,-1.2314l-6.1687,11.675l13.134,1.3571l-8.3278,10.247l12.617,3.8934l-10.167,8.4254l11.615,6.2801l-11.615,6.2801l10.167,8.4254l-12.617,3.8934l8.3278,10.247l-13.134,1.3571l6.1687,11.675l-13.147,-1.2314l3.7725,12.654z" fill="#b3b3b3" id="path4608" stroke="#000000" stroke-width="0.53916" transform="matrix(1.2563 0 0 1.2563 101.58 -260.84)"/>
       <path d="m1137.328851,299.104322c0,24.853 -20.147,45.001 -45.001,45.001c-24.853,0 -45.001,-20.147 -45.001,-45.001c0,-24.853 20.147,-45.001 45.001,-45.001c24.853,0 45.001,20.147 45.001,45.001z" fill="#b3b3b3" id="path4610" stroke="#666666" stroke-width="0.2749" transform="matrix(1.732 0 0 1.732 -375.64 -553.79)"/>
       <path d="m1406.224077,250.805158c0,24.853 -20.147,45.001 -45.001,45.001c-24.853,0 -45.001,-20.147 -45.001,-45.001c0,-24.853 20.147,-45.001 45.001,-45.001c24.853,0 45.001,20.147 45.001,45.001z" fill="none" id="path4612" stroke="#333333" stroke-width="0.8" transform="matrix(1.2563 0 0 1.2563 -193.82 -350.82)"/>
       <g id="g4614" transform="matrix(-4.7931 0 0 -4.7931 7754.6 7396)">
        <path d="m1304.389355,1555.492626c-1.4775,-0.9199 -3.2848,-1.9215 -5.769,0c0.4,-2.6921 -1.0244,-4.0309 -2.8845,-4.9825c1.8852,-0.8459 3.1957,-2.1989 2.8845,-4.9825c2.0365,1.4935 3.9477,1.3378 5.769,0c-0.3106,2.2053 0.5333,3.9165 2.8845,4.9825c-2.0865,0.6958 -3.0751,2.3334 -2.8845,4.9825z" fill="url(#radialGradient4799)" fill-rule="evenodd" id="path4616" stroke="#4d4d4d" stroke-width="0.2"/>
        <path d="m1142.611851,1608.260056c0,2.9052 -2.3552,5.2603 -5.2604,5.2603c-2.9051,0 -5.2603,-2.3551 -5.2603,-5.2603s2.3552,-5.2603 5.2603,-5.2603c2.9052,0 5.2604,2.3551 5.2604,5.2603z" fill="url(#radialGradient4801)" fill-rule="evenodd" id="path4618" transform="matrix(0.60126 0 0 0.60126 617.65 583.5)"/>
       </g>
      </g>
     </g>
     <g id="g4620" transform="translate(-355.98 406.59)">
      <path d="m336.96286,-227.402935c0,4.4574 -3.6134,8.0708 -8.0708,8.0708s-8.0708,-3.6134 -8.0708,-8.0708s3.6134,-8.0708 8.0708,-8.0708s8.0708,3.6134 8.0708,8.0708z" fill="#1a1a1a" filter="url(#filter4518)" id="path4622" opacity="0.76852" transform="matrix(1.3058 0.7128 -0.88891 1.5887 -412.42 -398.9)"/>
      <g id="g4624" transform="matrix(0.17274 0 0 0.17274 -47.05 -521.77)">
       <path d="m1179.374077,232.485158l-12.654,-3.7725l1.2314,13.147l-11.675,-6.1687l-1.3571,13.134l-10.247,-8.3278l-3.8934,12.617l-8.4254,-10.167l-6.2801,11.615l-6.2801,-11.615l-8.4254,10.167l-3.8934,-12.617l-10.247,8.3278l-1.3571,-13.134l-11.675,6.1687l1.2314,-13.147l-12.654,3.7725l3.7725,-12.654l-13.147,1.2314l6.1687,-11.675l-13.134,-1.3571l8.3278,-10.247l-12.617,-3.8934l10.167,-8.4254l-11.615,-6.2801l11.615,-6.2801l-10.167,-8.4254l12.617,-3.8934l-8.3278,-10.247l13.134,-1.3571l-6.1687,-11.675l13.147,1.2314l-3.7725,-12.654l12.654,3.7725l-1.2314,-13.147l11.675,6.1687l1.3571,-13.134l10.247,8.3278l3.8934,-12.617l8.4254,10.167l6.2801,-11.615l6.2801,11.615l8.4254,-10.167l3.8934,12.617l10.247,-8.3278l1.3571,13.134l11.675,-6.1687l-1.2314,13.147l12.654,-3.7725l-3.7725,12.654l13.147,-1.2314l-6.1687,11.675l13.134,1.3571l-8.3278,10.247l12.617,3.8934l-10.167,8.4254l11.615,6.2801l-11.615,6.2801l10.167,8.4254l-12.617,3.8934l8.3278,10.247l-13.134,1.3571l6.1687,11.675l-13.147,-1.2314l3.7725,12.654z" fill="#b3b3b3" id="path4626" stroke="#000000" stroke-width="0.53916" transform="matrix(1.2563 0 0 1.2563 101.58 -260.84)"/>
       <path d="m1137.328851,299.104322c0,24.853 -20.147,45.001 -45.001,45.001c-24.853,0 -45.001,-20.147 -45.001,-45.001c0,-24.853 20.147,-45.001 45.001,-45.001c24.853,0 45.001,20.147 45.001,45.001z" fill="#b3b3b3" id="path4628" stroke="#666666" stroke-width="0.2749" transform="matrix(1.732 0 0 1.732 -375.64 -553.79)"/>
       <path d="m1406.224077,250.805158c0,24.853 -20.147,45.001 -45.001,45.001c-24.853,0 -45.001,-20.147 -45.001,-45.001c0,-24.853 20.147,-45.001 45.001,-45.001c24.853,0 45.001,20.147 45.001,45.001z" fill="none" id="path4630" stroke="#333333" stroke-width="0.8" transform="matrix(1.2563 0 0 1.2563 -193.82 -350.82)"/>
       <g id="g4632" transform="matrix(-4.7931 0 0 -4.7931 7754.6 7396)">
        <path d="m1304.389355,1555.492626c-1.4775,-0.9199 -3.2848,-1.9215 -5.769,0c0.4,-2.6921 -1.0244,-4.0309 -2.8845,-4.9825c1.8852,-0.8459 3.1957,-2.1989 2.8845,-4.9825c2.0365,1.4935 3.9477,1.3378 5.769,0c-0.3106,2.2053 0.5333,3.9165 2.8845,4.9825c-2.0865,0.6958 -3.0751,2.3334 -2.8845,4.9825z" fill="url(#radialGradient4799)" fill-rule="evenodd" id="path4634" stroke="#4d4d4d" stroke-width="0.2"/>
        <path d="m1142.611851,1608.260056c0,2.9052 -2.3552,5.2603 -5.2604,5.2603c-2.9051,0 -5.2603,-2.3551 -5.2603,-5.2603s2.3552,-5.2603 5.2603,-5.2603c2.9052,0 5.2604,2.3551 5.2604,5.2603z" fill="url(#radialGradient4801)" fill-rule="evenodd" id="path4636" transform="matrix(0.60126 0 0 0.60126 617.65 583.5)"/>
       </g>
      </g>
     </g>
    </g>
    <g id="g4177" transform="translate(8.2879 -1.93180e-7)">
     <g id="g3324" transform="matrix(0.81275 0 0 1 259.57 -32.632)">
      <rect fill="url(#linearGradient4815)" height="10.182" id="rect3242" width="44.262" x="553.39294" y="-46.421209"/>
      <rect fill="url(#linearGradient4817)" height="8.0358" id="rect3254" width="37.585" x="556.73294" y="-45.348209"/>
      <rect fill="url(#linearGradient4819)" height="8.036" id="rect3268" width="37.585" x="556.73294" y="-45.348309"/>
     </g>
     <rect fill="url(#linearGradient4821)" height="7.0438" id="rect3293" width="27.541" x="713.553368" y="-77.484809"/>
    </g>
    <g id="g4124" stroke="#628000" transform="matrix(0.4641 0 0 0.4641 377.38 -30.343)">
     <path d="m771.635176,700.608791c-1.288,2.2308 -4.1405,2.9952 -6.3713,1.7072s-2.9952,-4.1405 -1.7072,-6.3713s4.1405,-2.9952 6.3713,-1.7072c0.70904,0.40937 1.2978,0.99816 1.7072,1.7072" fill="none" id="path3348" stroke="#628000" stroke-linecap="round" stroke-width="1.4" transform="matrix(0 -0.99341 1.0908 0 10.217 669.19)"/>
     <path d="m771.886553,-99.291692l0,5.602" fill="none" id="path4122" stroke="#628000" stroke-linecap="round" stroke-width="1.4"/>
    </g>
    <g id="g3849" transform="matrix(1 0 0 1.399 102.46 30.76)">
     <path d="m-238.906632,-186.498636l5.9199,-2.457c-3.1788,-4.5976 -20.936,-8.0939 -26.042,-8.0939l0,5.3438c3.686,0 15.146,2.158 20.122,5.2071l0.0001,0z" fill="url(#linearGradient4823)" id="path3803"/>
     <path d="m-238.296632,-138.128636l5.4995,2.2829c0.0804,-0.23127 0.12223,-0.4649 0.12223,-0.70063l0,-51.125c0,-0.47806 -0.17202,-0.94754 -0.48905,-1.4061l-5.9199,2.457c1.4474,0.8868 2.3465,1.849 2.3465,2.8554l0,43.312c0,0.80858 -0.58037,1.5886 -1.5592,2.324l-0.00008,0.00043z" fill="url(#linearGradient4825)" id="path3816"/>
     <path d="m-238.076632,-138.248636l5.2514,2.3615c-3.1788,4.5976 -20.459,8.0939 -25.565,8.0939l-0.58636,0l0,-5.3438c3.686,0 15.923,-2.0625 20.9,-5.1116l-0.00004,0z" fill="url(#linearGradient4827)" id="path3842"/>
    </g>
    <g id="g3868" transform="matrix(-1 0 0 1.399 105.47 30.76)">
     <path d="m-663.833368,-186.498636l5.9199,-2.457c-3.1788,-4.5976 -20.936,-8.0939 -26.042,-8.0939l0,5.3438c3.686,0 15.146,2.158 20.122,5.2071l0.0001,0z" fill="url(#linearGradient4829)" id="path3870"/>
     <path d="m-663.223368,-138.128636l5.4995,2.2829c0.0804,-0.23127 0.12223,-0.4649 0.12223,-0.70063l0,-51.125c0,-0.47806 -0.17202,-0.94754 -0.48905,-1.4061l-5.9199,2.457c1.4474,0.8868 2.3465,1.849 2.3465,2.8554l0,43.312c0,0.80858 -0.58037,1.5886 -1.5592,2.324l-0.00008,0.00043z" fill="url(#linearGradient4831)" id="path3872"/>
     <path d="m-663.003368,-138.248636l5.2514,2.3615c-3.1788,4.5976 -20.459,8.0939 -25.565,8.0939l-0.58636,0l0,-5.3438c3.686,0 15.923,-2.0625 20.9,-5.1116l-0.00004,0z" fill="url(#linearGradient4833)" id="path3874"/>
    </g>
   </g>
  </g>
 </g>
</svg>