<svg width="300" height="80" xmlns="http://www.w3.org/2000/svg" xmlns:xlink="http://www.w3.org/1999/xlink"><defs><linearGradient id="e"><stop offset="0" stop-color="#bcbcbc"/><stop offset="1" stop-color="#040404"/></linearGradient><linearGradient id="f"><stop offset="0" stop-color="#c8c8c8"/><stop offset="1" stop-color="#1d1d1d"/></linearGradient><linearGradient id="b"><stop offset="0" stop-color="#909090"/><stop offset=".5" stop-color="#ababab"/><stop offset="1" stop-color="#181818"/></linearGradient><linearGradient id="a"><stop offset="0" stop-color="#232323"/><stop offset="1" stop-color="#474747"/></linearGradient><linearGradient id="c"><stop offset="0" stop-color="#f2f2f2"/><stop offset="1" stop-color="#141414"/></linearGradient><linearGradient id="d"><stop offset="0" stop-color="#f0f0f0"/><stop offset="1" stop-color="#afafaf"/></linearGradient><filter color-interpolation-filters="sRGB" height="1.311" id="r" width="1.28" x="-.14" y="-.155"><feGaussianBlur stdDeviation="1"/></filter><linearGradient id="g" x1=".5" x2=".5" y1=".885" y2=".971"><stop offset="0" stop-color="#1c1c1c"/><stop offset="1" stop-color="#424242"/></linearGradient><linearGradient id="h" x1="-.026" x2="1.026" xlink:href="#a" y1=".5" y2=".5"/><linearGradient id="i" x1=".548" x2=".548" xlink:href="#b" y1="-.001" y2="1"/><linearGradient id="j" x1=".548" x2=".548" xlink:href="#b" y1="0" y2="1"/><linearGradient id="k" x1=".179" x2=".748" y1=".055" y2=".954"><stop offset="0" stop-color="#282828"/><stop offset=".568" stop-color="#737373"/><stop offset="1" stop-color="#353535"/></linearGradient><linearGradient id="l" x1=".473" x2=".473" y1=".002" y2=".999"><stop offset="0" stop-color="#a9a9a9"/><stop offset=".273" stop-color="#f6f6f6"/><stop offset="1" stop-color="#3e3e3e"/></linearGradient><linearGradient id="m" x1=".484" x2=".5" y1="0" y2="1"><stop offset="0"/><stop offset=".013"/><stop offset=".019" stop-color="#282828"/><stop offset=".482" stop-color="#313131"/><stop offset=".972" stop-color="#9d9d9d"/><stop offset=".987" stop-color="#1a1a1a"/><stop offset="1" stop-color="#161616"/></linearGradient><linearGradient id="n" x1=".07" x2=".799" y1=".518" y2=".518"><stop offset="0" stop-color="#aa515d"/><stop offset=".5" stop-color="#693239"/><stop offset="1" stop-color="#a94f5c"/></linearGradient><linearGradient id="o" x1="-.001" x2="1" y1=".51" y2=".598"><stop offset="0"/><stop offset=".013" stop-color="#404040" stop-opacity=".996"/><stop offset=".023" stop-color="#a0a0a0" stop-opacity=".992"/><stop offset=".034" stop-color="#232323" stop-opacity=".992"/><stop offset=".049" stop-color="#515151" stop-opacity=".992"/><stop offset=".316" stop-color="#7e7e7e" stop-opacity=".992"/><stop offset=".637" stop-color="#353535" stop-opacity=".992"/><stop offset=".932" stop-color="#282828" stop-opacity=".992"/><stop offset=".958" stop-color="#090909" stop-opacity=".992"/><stop offset=".976" stop-color="#858585" stop-opacity=".992"/><stop offset=".99" stop-color="#212121" stop-opacity=".992"/><stop offset="1" stop-opacity=".992"/></linearGradient><linearGradient id="p" x1=".483" x2=".499" y1=".001" y2="1.001"><stop offset="0"/><stop offset=".046" stop-color="#909090"/><stop offset=".105" stop-color="#4e4e4e"/><stop offset=".357" stop-color="#3e3e3e"/><stop offset=".725" stop-color="#d3d3d3"/><stop offset=".938" stop-color="#a6a6a6"/><stop offset="1"/></linearGradient><radialGradient cx="1560.3" cy="1528.3" gradientTransform="matrix(1 0 0 .86599 -2.233 180.91)" gradientUnits="userSpaceOnUse" id="s" r="5.869" xlink:href="#c"/><radialGradient cx="1564.1" cy="1531.6" gradientUnits="userSpaceOnUse" id="t" r="5.26" xlink:href="#d"/><linearGradient id="u" x1=".548" x2=".548" xlink:href="#b" y1="0" y2="1.001"/><linearGradient id="v" x1=".003" x2="1" y1=".482" y2=".5"><stop offset="0" stop-color="#1d1d1d"/><stop offset=".125" stop-color="#838383"/><stop offset=".891" stop-color="#838383"/><stop offset="1" stop-color="#ebebeb"/></linearGradient><linearGradient id="w" x1=".495" x2=".495" y1=".016" y2="1"><stop offset="0"/><stop offset=".134" stop-opacity=".191"/><stop offset=".866" stop-opacity=".192"/><stop offset="1" stop-opacity="0"/></linearGradient><linearGradient id="x" x1=".006" x2="1" y1=".507" y2=".507"><stop offset="0"/><stop offset=".011" stop-color="#2f2f2f" stop-opacity=".953"/><stop offset=".984" stop-color="#2f2f2f" stop-opacity=".953"/><stop offset="1"/></linearGradient><linearGradient id="y" x1=".692" x2="1.099" xlink:href="#e" y1="1" y2=".305"/><linearGradient id="z" x1=".009" x2="1.003" xlink:href="#f" y1=".463" y2=".463"/><linearGradient id="A" x1=".721" x2="1.059" xlink:href="#e" y1="0" y2=".5"/><linearGradient id="B" x1=".32" x2="-.087" xlink:href="#e" y1="1" y2=".305"/><linearGradient id="C" x1="-2.121" x2="-3.115" xlink:href="#f" y1=".463" y2=".463"/><linearGradient id="D" x1=".283" x2="-.055" xlink:href="#e" y1="0" y2=".5"/></defs><g transform="matrix(-.31598 0 0 -.2975 249.397 -18.702)"><g transform="translate(-15.589 -161.37)" fill-rule="evenodd" stroke-linecap="square" stroke-width="2"><rect fill="gray" height="260.5" rx="6" ry="6" stroke="#000" width="948" x="-141.987" y="-165.353"/><rect fill="#1d1d1d" height="260.5" rx="6" ry="6" stroke="#2f2f2f" width="877.89" x="-106.927" y="-165.353"/></g><path fill="url(#g)" fill-rule="evenodd" stroke="#000" stroke-linecap="square" stroke-width="1.963" transform="matrix(1 0 0 -1 0 6)" d="M699.153 75.336h56.233v244.8h-56.233z"/><rect fill="#ccc" height="48.471" rx="7.126" ry="7.643" stroke="url(#h)" stroke-width="1.35" transform="matrix(.411 0 0 -.38473 -157.13 -283)" width="65.953" x="7.963" y="54.29"/><path fill="url(#i)" d="M-134.982-323.253h819.88v10.182h-819.88z" transform="matrix(1.0674 0 0 1 22.523 -.825)"/><path fill="url(#j)" d="M-134.982-78.229h819.88v10.182h-819.88z" transform="matrix(1.0674 0 0 1 22.523 -.825)"/><g id="q" transform="translate(-557.33 -548.15)"><path fill="#1d1d1d" d="M437.933 233.717h55.733v229.86h-55.733z"/><path fill="url(#k)" transform="matrix(1 0 0 -1 0 6)" d="M464.223-308.387h16.267v66.797h-16.267z"/><path d="M437.943 233.727v229.85h7.59v-10.319h17.274v10.32h2.978v-10.543h12.465v10.542h4.874v-229.85h-4.874v10.542h-12.465v-10.542h-27.842zm24.864 229.85h-17.274v.48h17.274v-.48zm-17.699-229.79h17.274v10.063h-17.274v-10.063zm0 14.631h17.274v64.244h-17.274v-64.244zm20.677 0h12.465v64.276h-12.465v-64.276zm-20.677 68.11h17.274v64.243h-17.274v-64.244zm20.677.414h12.465v64.404h-12.465v-64.404zm-19.793 68.173h17.274v63.413h-17.274v-63.413zm19.793.512h12.465v63.254h-12.465v-63.254z" fill="url(#l)"/><rect fill="url(#m)" height="55.05" rx="2.663" width="33.408" x="460.263" y="321.627"/><path fill="url(#n)" stroke="#aa515d" stroke-linecap="square" stroke-width="1.011" transform="rotate(90 212.464 -38.163)" d="M496.093-287.703h27.743v16.794h-27.743z"/><path fill="url(#o)" transform="rotate(90 212.464 -38.163)" d="M524.383-288.383h176.25v17.537h-176.25z"/><g transform="matrix(0 .27365 -.28024 0 251.62 517.58)"><rect fill="#333" height="48.471" rx="7.126" ry="7.643" stroke="url(#h)" stroke-width="2.055" transform="matrix(1 0 0 -1 21.926 0)" width="65.953" x="-670.364" y="697.649"/><path d="M726.092 254.755c0 12.78-10.36 23.14-23.14 23.14-12.78 0-23.138-10.36-23.138-23.14 0-12.78 10.36-23.139 23.139-23.139 12.78 0 23.139 10.36 23.139 23.14z" fill="#666" transform="rotate(-90 -456.45 399.58) scale(.9459)"/></g><path fill="url(#p)" d="M450.403 449.997h7.032v24.41h-7.032z"/><g fill="#4d4d4d"><path d="M1015.866 255.735l-6.867-12.043h13.733l-6.866 12.043z" transform="matrix(.3022 0 0 .34216 171.27 249.593)"/><path d="M1013.156 232.935h4.5v12.856h-4.5z" transform="matrix(.3022 0 0 .34216 171.27 249.593)"/></g><path d="M474.353 345.32h7.688m.103.03c.55 0 .995 1.503.995 3.356s-.445 3.356-1.047 3.371l-7.739.016m1.03-3.387c0 1.853-.446 3.356-.995 3.356-.55 0-.996-1.503-.996-3.356s.446-3.355.996-3.355.995 1.502.995 3.355z" fill="none" stroke="#009c00" stroke-linecap="square" stroke-width=".537"/><g stroke="#6d635b" stroke-width="1.922" stroke-linecap="square"><path d="M953.271 196.403h23.997m.321.108c1.716 0 3.107 5.18 3.107 11.57 0 6.39-1.39 11.57-3.267 11.624l-24.158.053m3.214-11.677c0 6.39-1.391 11.57-3.107 11.57s-3.107-5.18-3.107-11.57c0-6.39 1.391-11.57 3.107-11.57s3.107 5.18 3.107 11.57z" fill="none" transform="matrix(.33836 0 0 .28792 151.58 304.313)"/><g fill="#b3b3b3" stroke-width="2.185"><path d="M1403.03 497.636l39.55-35.45" transform="matrix(.29767 0 0 .2533 54.732 242.663)"/><path d="M1071.54 208.076l-39.54-35.45" transform="matrix(.29767 0 0 .2533 165.18 316.008)"/></g></g><g transform="matrix(1.0469 0 0 1.0223 4.52 14.94)"><rect fill="#333" height="60.552" rx="4.746" ry="4.999" stroke="#000" stroke-width=".8" width="43.081" x="421.285" y="356.77"/><path d="M442.955 357.06h16.36c2.558 0 4.618 2.203 4.618 4.94v49.962c0 2.736-2.06 4.94-4.619 4.94h-16.359" fill="#b3b3b3"/><path d="M442.685 357.35v59.258" fill="#00f" stroke="#00f" stroke-width=".559"/></g><path d="M198.578 242.516l.824-.11c.095.467.256.803.483 1.01.228.205.504.308.83.308.388 0 .716-.134.983-.403.267-.268.4-.6.4-.997 0-.379-.123-.69-.37-.936-.248-.246-.562-.369-.943-.369-.156 0-.35.03-.582.092l.092-.723a1.696 1.696 0 0 0 1.08-.266c.28-.183.421-.465.421-.847a.998.998 0 0 0-.307-.75c-.204-.199-.468-.298-.791-.298-.32 0-.588.1-.801.302-.214.202-.351.504-.412.906l-.824-.146c.1-.552.33-.98.686-1.284.357-.303.801-.455 1.332-.455.366 0 .704.078 1.012.235.308.158.544.372.707.644.163.271.245.56.245.865 0 .29-.078.553-.234.791a1.594 1.594 0 0 1-.69.568c.396.091.704.281.924.57.22.288.33.649.33 1.082a1.98 1.98 0 0 1-.641 1.49c-.428.407-.968.611-1.62.611-.59 0-1.079-.175-1.468-.526-.389-.351-.61-.806-.666-1.364h0zm5.21-1.54c0-.793.082-1.432.245-1.915.164-.484.406-.857.728-1.12.322-.262.727-.393 1.215-.393.36 0 .676.072.948.217.271.145.496.354.673.627.176.273.315.606.416.998s.151.92.151 1.586c0 .787-.08 1.423-.243 1.906-.161.484-.403.858-.725 1.122-.322.264-.728.396-1.22.396-.647 0-1.155-.232-1.524-.696-.442-.559-.664-1.468-.664-2.728h0zm.847 0c0 1.101.13 1.835.387 2.2.258.364.576.546.954.546s.697-.183.955-.55c.257-.365.386-1.098.386-2.196 0-1.105-.129-1.838-.386-2.202-.258-.363-.58-.544-.964-.544-.378 0-.68.16-.906.48-.284.41-.426 1.164-.426 2.266h0zm4.373 0c0-.793.082-1.432.245-1.915.164-.484.406-.857.728-1.12.322-.262.727-.393 1.215-.393.36 0 .676.072.948.217.271.145.496.354.673.627.176.273.315.606.416.998s.151.92.151 1.586c0 .787-.08 1.423-.243 1.906-.161.484-.403.858-.725 1.122-.322.264-.728.396-1.22.396-.647 0-1.155-.232-1.524-.696-.442-.559-.664-1.468-.664-2.728h0zm.847 0c0 1.101.13 1.835.387 2.2.258.364.576.546.954.546s.697-.183.955-.55c.257-.365.386-1.098.386-2.196 0-1.105-.129-1.838-.386-2.202-.258-.363-.58-.544-.964-.544-.378 0-.68.16-.906.48-.284.41-.426 1.164-.426 2.266h0zm10.443.68v-.787l2.843-.005v2.49a5.02 5.02 0 0 1-1.35.785c-.464.175-.94.263-1.428.263a3.81 3.81 0 0 1-1.797-.424 2.8 2.8 0 0 1-1.22-1.224 3.855 3.855 0 0 1-.412-1.79c0-.653.137-1.262.41-1.828.273-.566.666-.986 1.179-1.261.512-.275 1.103-.412 1.771-.412.485 0 .924.079 1.316.236.392.157.7.376.922.657.223.28.392.646.508 1.098l-.8.22c-.101-.342-.227-.61-.376-.806a1.54 1.54 0 0 0-.64-.469 2.35 2.35 0 0 0-.925-.176c-.406 0-.757.062-1.053.185a1.965 1.965 0 0 0-.716.488 2.325 2.325 0 0 0-.424.663c-.17.415-.256.865-.256 1.35 0 .599.103 1.099.309 1.502.206.402.506.701.9.897.393.195.81.293 1.253.293.385 0 .76-.074 1.126-.222.366-.148.644-.306.833-.474v-1.25h-1.973zm4.11 2.63v-6.71h2.518c.512 0 .924.068 1.233.204.31.136.553.345.728.627.175.282.263.577.263.885 0 .287-.078.557-.233.81-.156.254-.39.458-.705.614.406.119.718.322.936.609.218.286.327.625.327 1.016 0 .314-.066.606-.199.876s-.297.479-.492.625c-.195.146-.44.257-.735.332a4.47 4.47 0 0 1-1.082.112h-2.559zm.888-3.89h1.451c.394 0 .676-.026.847-.078a.941.941 0 0 0 .51-.334.963.963 0 0 0 .172-.586 1.08 1.08 0 0 0-.16-.588.81.81 0 0 0-.458-.348c-.198-.063-.538-.094-1.02-.094h-1.342v2.028zm0 3.098h1.671c.287 0 .488-.01.604-.032.205-.036.375-.097.513-.183a.972.972 0 0 0 .338-.373c.089-.163.133-.352.133-.565 0-.25-.064-.468-.192-.652a1.014 1.014 0 0 0-.533-.39c-.228-.074-.555-.112-.982-.112h-1.552v2.307z" transform="matrix(0 .98817 -1.012 0 704.42 199.11)" fill="#fff" stroke="#000" stroke-width=".469"/><path d="M185.866 267.718v-.424c-.225.326-.53.49-.917.49-.17 0-.33-.033-.477-.098a.786.786 0 0 1-.33-.247.922.922 0 0 1-.15-.363 2.492 2.492 0 0 1-.03-.457v-1.79h.49v1.602c0 .256.01.429.03.517a.51.51 0 0 0 .195.304c.1.073.223.11.37.11a.806.806 0 0 0 .414-.113.628.628 0 0 0 .273-.307c.054-.13.08-.318.08-.565v-1.548h.49v2.89h-.438zm1.2 0v-3.988h.49v3.988h-.49zm2.32-.44l.07.433a1.818 1.818 0 0 1-.37.043.84.84 0 0 1-.413-.084.472.472 0 0 1-.207-.222c-.04-.091-.06-.284-.06-.578v-1.662h-.359v-.381h.36v-.716l.487-.294v1.01h.492v.38h-.492v1.69c0 .14.009.23.026.27.017.04.045.071.084.095a.326.326 0 0 0 .167.035c.055 0 .126-.006.215-.019h0zm.47.44v-2.89h.441v.439c.112-.205.216-.34.312-.406a.544.544 0 0 1 .314-.098c.165 0 .333.053.503.158l-.169.455a.7.7 0 0 0-.359-.107.466.466 0 0 0-.288.097.523.523 0 0 0-.182.268 1.908 1.908 0 0 0-.082.571v1.513h-.49zm3.76-.36a1.824 1.824 0 0 1-.524.327 1.513 1.513 0 0 1-.54.095c-.317 0-.561-.077-.732-.233a.768.768 0 0 1-.255-.594.797.797 0 0 1 .349-.669c.105-.071.222-.125.353-.161a3.5 3.5 0 0 1 .435-.073c.395-.048.687-.104.873-.17a5.88 5.88 0 0 0 .003-.127c0-.2-.046-.34-.138-.422-.126-.11-.311-.166-.558-.166-.23 0-.4.04-.51.121-.11.081-.191.224-.244.429l-.479-.065c.044-.205.115-.37.215-.497a.942.942 0 0 1 .433-.291 1.93 1.93 0 0 1 .656-.102c.246 0 .447.029.6.087a.793.793 0 0 1 .341.219c.072.088.123.2.152.333.017.084.025.234.025.452v.653c0 .455.01.743.031.864.021.12.062.236.124.347h-.512a1.038 1.038 0 0 1-.097-.357h0zm-.04-1.093c-.178.072-.445.134-.8.185a1.847 1.847 0 0 0-.428.098.418.418 0 0 0-.261.392c0 .13.05.239.148.326.1.087.244.13.434.13.189 0 .357-.04.504-.123a.762.762 0 0 0 .324-.34c.052-.11.078-.273.078-.489v-.18zm1.12.403l.49-.065c.056.278.152.478.287.6s.3.184.494.184c.23 0 .425-.08.583-.24a.808.808 0 0 0 .239-.593.752.752 0 0 0-.781-.775 1.41 1.41 0 0 0-.346.054l.054-.43a1.008 1.008 0 0 0 .642-.158c.168-.109.25-.277.25-.504 0-.18-.06-.328-.181-.446a.648.648 0 0 0-.471-.177c-.19 0-.35.06-.476.18-.127.12-.209.3-.245.539l-.49-.087c.06-.329.196-.583.408-.764.212-.18.476-.27.792-.27.218 0 .418.046.601.14.184.093.324.22.42.382a.982.982 0 0 1 .146.514c0 .173-.046.33-.138.471a.947.947 0 0 1-.411.337.926.926 0 0 1 .55.34c.13.17.195.385.195.643 0 .348-.127.643-.38.885s-.576.364-.964.364c-.35 0-.64-.105-.872-.313a1.21 1.21 0 0 1-.396-.811h0zm5.67.58v.471h-2.636a.86.86 0 0 1 .057-.34 1.77 1.77 0 0 1 .322-.53c.148-.175.362-.376.641-.605.434-.355.726-.637.879-.845.152-.207.228-.404.228-.589a.655.655 0 0 0-.208-.49.75.75 0 0 0-.543-.2c-.235 0-.424.07-.566.212-.141.141-.213.337-.214.587l-.504-.051c.035-.376.164-.662.39-.859.224-.197.526-.295.905-.295.383 0 .686.106.91.318.222.212.334.475.334.79 0 .159-.033.316-.098.47s-.174.317-.325.487c-.152.17-.403.405-.755.702a8.518 8.518 0 0 0-.566.502 1.614 1.614 0 0 0-.207.265h1.956zm.53-1.5c0-.471.049-.85.146-1.138.097-.288.241-.51.432-.666.192-.156.433-.234.723-.234.214 0 .402.043.563.13.161.086.295.21.4.372a2 2 0 0 1 .248.594c.06.233.09.547.09.942 0 .468-.049.846-.145 1.134-.096.287-.24.51-.431.666s-.433.235-.725.235c-.385 0-.687-.137-.906-.413-.263-.332-.395-.873-.395-1.622h0zm.504 0c0 .655.076 1.09.23 1.308.153.216.342.325.567.325.225 0 .414-.109.567-.327s.23-.653.23-1.306c0-.656-.077-1.093-.23-1.308-.153-.216-.344-.324-.573-.324a.628.628 0 0 0-.538.285c-.17.244-.253.692-.253 1.347h0zm4.166.69l.498-.043c.024.2.079.363.165.49.086.129.22.232.401.311s.386.118.612.118c.202 0 .38-.03.534-.09a.74.74 0 0 0 .344-.246.571.571 0 0 0 .113-.341.52.52 0 0 0-.11-.328.807.807 0 0 0-.358-.235 7.024 7.024 0 0 0-.71-.195c-.367-.088-.624-.17-.77-.249a1.08 1.08 0 0 1-.426-.371.91.91 0 0 1-.14-.497c0-.201.057-.39.171-.564.114-.175.281-.308.5-.399a1.9 1.9 0 0 1 .733-.136 2 2 0 0 1 .782.143c.226.095.4.235.52.42.122.185.188.395.197.629l-.506.038c-.028-.252-.12-.443-.277-.571-.156-.13-.388-.194-.695-.194-.319 0-.552.059-.698.176s-.219.258-.219.423c0 .143.052.261.155.354.102.092.367.187.796.284.43.097.724.182.883.254.232.107.404.243.514.407s.166.353.166.567c0 .213-.06.413-.182.6a1.2 1.2 0 0 1-.524.438 1.825 1.825 0 0 1-.768.157c-.361 0-.664-.053-.908-.158a1.27 1.27 0 0 1-.574-.475 1.346 1.346 0 0 1-.219-.717h0zm6.74-.12l.528.134c-.11.433-.31.764-.597.991-.288.228-.64.342-1.055.342-.43 0-.779-.088-1.048-.263a1.64 1.64 0 0 1-.615-.76 2.713 2.713 0 0 1-.211-1.07c0-.415.08-.777.238-1.086.159-.31.384-.545.677-.705s.616-.241.968-.241c.399 0 .734.102 1.006.305s.462.489.569.857l-.52.122c-.092-.29-.226-.501-.402-.634-.176-.132-.398-.198-.664-.198-.307 0-.563.073-.769.22-.206.147-.35.344-.434.592a2.384 2.384 0 0 0-.125.766c0 .339.05.635.148.888.1.253.253.442.461.567s.435.188.678.188c.296 0 .546-.085.75-.256.206-.17.345-.423.417-.759h0zm1 .12l.498-.043c.024.2.079.363.165.49.086.129.22.232.401.311s.386.118.612.118c.202 0 .38-.03.534-.09s.268-.141.344-.246a.571.571 0 0 0 .113-.341.52.52 0 0 0-.11-.328.807.807 0 0 0-.358-.235 7.024 7.024 0 0 0-.71-.195c-.367-.088-.624-.17-.77-.249a1.08 1.08 0 0 1-.426-.371.91.91 0 0 1-.14-.497c0-.201.057-.39.171-.564.114-.175.281-.308.5-.399a1.9 1.9 0 0 1 .733-.136 2 2 0 0 1 .782.143c.226.095.4.235.52.42.122.185.188.395.197.629l-.506.038c-.028-.252-.12-.443-.277-.571-.156-.13-.388-.194-.695-.194-.319 0-.552.059-.698.176s-.219.258-.219.423c0 .143.052.261.155.354.102.092.367.187.796.284.43.097.724.182.883.254.232.107.404.243.514.407s.166.353.166.567c0 .213-.06.413-.182.6a1.2 1.2 0 0 1-.524.438 1.825 1.825 0 0 1-.768.157c-.361 0-.664-.053-.908-.158a1.27 1.27 0 0 1-.574-.475 1.346 1.346 0 0 1-.219-.717h0zm4 1.28v-3.988h.528v3.988h-.528z" transform="matrix(0 1.0514 -.95108 0 704.42 199.11)" fill="#ccc" stroke="#000" stroke-width=".929"/><path d="M233.901 242.293h-.496v-3.159a2.511 2.511 0 0 1-.47.342 3.294 3.294 0 0 1-.521.256v-.48c.277-.13.52-.288.727-.473.208-.185.354-.365.44-.54h.32v4.054zm1.27-1.05l.52-.044c.04.253.129.444.27.571a.73.73 0 0 0 .507.192c.239 0 .44-.09.606-.27.165-.18.248-.419.248-.716 0-.283-.08-.506-.238-.67a.83.83 0 0 0-.624-.244.865.865 0 0 0-.735.39l-.466-.06.391-2.074h2.008v.474h-1.611l-.218 1.085c.243-.169.497-.253.763-.253.353 0 .65.122.892.366.243.244.364.558.364.942 0 .365-.106.68-.32.947-.258.327-.612.49-1.06.49-.367 0-.667-.103-.899-.308a1.204 1.204 0 0 1-.398-.818h0zm3.28 1.05v-4.037h.496v2.302l1.173-1.19h.642l-1.118 1.085 1.23 1.84h-.61l-.967-1.495-.35.336v1.159h-.496z" transform="matrix(0 .99783 -1.0022 0 704.42 199.11)" fill="#e6e6e6" stroke="#000" stroke-width=".282"/></g><use height="262.5" transform="translate(58.503)" width="950" xlink:href="#q"/><use height="262.5" transform="translate(117.01)" width="950" xlink:href="#q"/><use height="262.5" transform="translate(175.51)" width="950" xlink:href="#q"/><use height="262.5" transform="translate(234.01)" width="950" xlink:href="#q"/><use height="262.5" transform="translate(292.51)" width="950" xlink:href="#q"/><use height="262.5" transform="translate(351.02)" width="950" xlink:href="#q"/><use height="262.5" transform="translate(409.52)" width="950" xlink:href="#q"/><use height="262.5" transform="translate(468.02)" width="950" xlink:href="#q"/><use height="262.5" transform="translate(526.52)" width="950" xlink:href="#q"/><use height="262.5" transform="translate(585.03)" width="950" xlink:href="#q"/><use height="262.5" transform="translate(643.53)" width="950" xlink:href="#q"/><use height="262.5" transform="translate(702.03)" width="950" xlink:href="#q"/><use height="262.5" transform="translate(760.53)" width="950" xlink:href="#q"/><path d="M336.963-227.403a8.07 8.07 0 1 1-16.142 0 8.07 8.07 0 0 1 16.142 0z" fill="#1a1a1a" filter="url(#r)" opacity=".769" transform="matrix(1.3058 .7128 -.88891 1.5887 -768.4 -146.78)"/><path d="M-129.543-264.255l-2.746-.819.267 2.853-2.534-1.338-.294 2.85-2.224-1.807-.845 2.738-1.828-2.207-1.363 2.52-1.363-2.52-1.828 2.207-.845-2.738-2.224 1.807-.295-2.85-2.533 1.338.267-2.853-2.746.819.819-2.746-2.854.267 1.34-2.534-2.851-.294 1.807-2.224-2.738-.845 2.206-1.828-2.52-1.363 2.52-1.363-2.206-1.828 2.738-.845-1.807-2.224 2.85-.295-1.339-2.533 2.854.267-.82-2.746 2.747.819-.267-2.853 2.533 1.338.295-2.85 2.224 1.807.845-2.738 1.828 2.207 1.363-2.521 1.363 2.52 1.828-2.206.845 2.738 2.224-1.807.294 2.85 2.534-1.338-.267 2.853 2.746-.819-.819 2.746 2.853-.267-1.339 2.533 2.85.295-1.807 2.224 2.739.845-2.207 1.828 2.52 1.363-2.52 1.363 2.207 1.828-2.739.845 1.808 2.224-2.85.294 1.338 2.534-2.853-.267.819 2.746z" fill="#b3b3b3" stroke="#000" stroke-width=".117"/><path d="M-127.646-275.824c0 7.436-6.027 13.464-13.463 13.464-7.436 0-13.464-6.028-13.464-13.464 0-7.436 6.028-13.464 13.464-13.464 7.435 0 13.463 6.028 13.463 13.464z" fill="#b3b3b3" stroke="#666" stroke-width=".082"/><path d="M-131.341-275.823a9.766 9.766 0 0 1-9.766 9.766c-5.393 0-9.766-4.372-9.766-9.766 0-5.393 4.372-9.765 9.766-9.765 5.393 0 9.766 4.372 9.766 9.765z" fill="none" stroke="#333" stroke-width=".174"/><g fill-rule="evenodd"><path d="M1304.39 1555.493c-1.478-.92-3.285-1.922-5.77 0 .4-2.692-1.024-4.031-2.884-4.983 1.885-.846 3.196-2.199 2.884-4.982 2.037 1.493 3.948 1.337 5.77 0-.311 2.205.533 3.916 2.884 4.982-2.087.696-3.075 2.334-2.885 4.983z" fill="url(#s)" stroke="#4d4d4d" stroke-width=".2" transform="translate(936.5 1007.935) scale(.82796)"/><path d="M1142.612 1608.26a5.26 5.26 0 1 1-10.52 0 5.26 5.26 0 0 1 10.52 0z" fill="url(#t)" transform="rotate(180 212.555 262.41) scale(.49782)"/></g><path d="M336.963-227.403a8.07 8.07 0 1 1-16.142 0 8.07 8.07 0 0 1 16.142 0z" fill="#1a1a1a" filter="url(#r)" opacity=".769" transform="matrix(1.3058 .7128 -.88891 1.5887 -768.4 7.69)"/><path d="M-129.543-109.785l-2.746-.819.267 2.853-2.534-1.338-.294 2.85-2.224-1.807-.845 2.738-1.828-2.207-1.363 2.52-1.363-2.52-1.828 2.207-.845-2.738-2.224 1.807-.295-2.85-2.533 1.338.267-2.853-2.746.819.819-2.746-2.854.267 1.34-2.534-2.851-.294 1.807-2.224-2.738-.845 2.206-1.828-2.52-1.363 2.52-1.363-2.206-1.828 2.738-.845-1.807-2.224 2.85-.295-1.339-2.533 2.854.267-.82-2.746 2.747.819-.267-2.853 2.533 1.338.295-2.85 2.224 1.807.845-2.738 1.828 2.207 1.363-2.521 1.363 2.52 1.828-2.206.845 2.738 2.224-1.807.294 2.85 2.534-1.338-.267 2.853 2.746-.819-.819 2.746 2.853-.267-1.339 2.533 2.85.295-1.807 2.224 2.739.845-2.207 1.828 2.52 1.363-2.52 1.363 2.207 1.828-2.739.845 1.808 2.224-2.85.294 1.338 2.534-2.853-.267.819 2.746z" fill="#b3b3b3" stroke="#000" stroke-width=".117"/><path d="M-127.646-121.354c0 7.436-6.027 13.464-13.463 13.464-7.436 0-13.464-6.028-13.464-13.464 0-7.436 6.028-13.464 13.464-13.464 7.435 0 13.463 6.028 13.463 13.464z" fill="#b3b3b3" stroke="#666" stroke-width=".082"/><path d="M-131.341-121.353a9.766 9.766 0 0 1-9.766 9.766c-5.393 0-9.766-4.372-9.766-9.766 0-5.393 4.372-9.765 9.766-9.765 5.393 0 9.766 4.372 9.766 9.765z" fill="none" stroke="#333" stroke-width=".174"/><g fill-rule="evenodd"><path d="M1304.39 1555.493c-1.478-.92-3.285-1.922-5.77 0 .4-2.692-1.024-4.031-2.884-4.983 1.885-.846 3.196-2.199 2.884-4.982 2.037 1.493 3.948 1.337 5.77 0-.311 2.205.533 3.916 2.884 4.982-2.087.696-3.075 2.334-2.885 4.983z" fill="url(#s)" stroke="#4d4d4d" stroke-width=".2" transform="translate(936.5 1162.405) scale(.82796)"/><path d="M1142.612 1608.26a5.26 5.26 0 1 1-10.52 0 5.26 5.26 0 0 1 10.52 0z" fill="url(#t)" transform="rotate(180 212.555 339.645) scale(.49782)"/></g><path d="M336.963-227.403a8.07 8.07 0 1 1-16.142 0 8.07 8.07 0 0 1 16.142 0z" fill="#1a1a1a" filter="url(#r)" opacity=".769" transform="matrix(1.3058 .7128 -.88891 1.5887 146.29 -146.78)"/><path d="M785.147-264.255l-2.746-.819.267 2.853-2.534-1.338-.294 2.85-2.224-1.807-.845 2.738-1.828-2.207-1.363 2.52-1.363-2.52-1.828 2.207-.845-2.738-2.224 1.807-.295-2.85-2.533 1.338.267-2.853-2.746.819.819-2.746-2.854.267 1.34-2.534-2.851-.294 1.807-2.224-2.738-.845 2.206-1.828-2.52-1.363 2.52-1.363-2.206-1.828 2.738-.845-1.807-2.224 2.85-.295-1.339-2.533 2.854.267-.82-2.746 2.747.819-.267-2.853 2.533 1.338.295-2.85 2.224 1.807.845-2.738 1.828 2.207 1.363-2.521 1.363 2.52 1.828-2.206.845 2.738 2.224-1.807.294 2.85 2.534-1.338-.267 2.853 2.746-.819-.819 2.746 2.853-.267-1.339 2.533 2.85.295-1.807 2.224 2.739.845-2.207 1.828 2.52 1.363-2.52 1.363 2.207 1.828-2.739.845 1.808 2.224-2.85.294 1.338 2.534-2.853-.267.819 2.746z" fill="#b3b3b3" stroke="#000" stroke-width=".117"/><path d="M787.044-275.824c0 7.436-6.027 13.464-13.463 13.464-7.436 0-13.464-6.028-13.464-13.464 0-7.436 6.028-13.464 13.464-13.464 7.435 0 13.463 6.028 13.463 13.464z" fill="#b3b3b3" stroke="#666" stroke-width=".082"/><path d="M783.349-275.823a9.766 9.766 0 0 1-9.766 9.766c-5.393 0-9.766-4.372-9.766-9.766 0-5.393 4.372-9.765 9.766-9.765 5.393 0 9.766 4.372 9.766 9.765z" fill="none" stroke="#333" stroke-width=".174"/><g fill-rule="evenodd"><path d="M1304.39 1555.493c-1.478-.92-3.285-1.922-5.77 0 .4-2.692-1.024-4.031-2.884-4.983 1.885-.846 3.196-2.199 2.884-4.982 2.037 1.493 3.948 1.337 5.77 0-.311 2.205.533 3.916 2.884 4.982-2.087.696-3.075 2.334-2.885 4.983z" fill="url(#s)" stroke="#4d4d4d" stroke-width=".2" transform="translate(1851.19 1007.935) scale(.82796)"/><path d="M1142.612 1608.26a5.26 5.26 0 1 1-10.52 0 5.26 5.26 0 0 1 10.52 0z" fill="url(#t)" transform="rotate(180 669.9 262.41) scale(.49782)"/></g><path d="M336.963-227.403a8.07 8.07 0 1 1-16.142 0 8.07 8.07 0 0 1 16.142 0z" fill="#1a1a1a" filter="url(#r)" opacity=".769" transform="matrix(1.3058 .7128 -.88891 1.5887 146.29 7.69)"/><path d="M785.147-109.785l-2.746-.819.267 2.853-2.534-1.338-.294 2.85-2.224-1.807-.845 2.738-1.828-2.207-1.363 2.52-1.363-2.52-1.828 2.207-.845-2.738-2.224 1.807-.295-2.85-2.533 1.338.267-2.853-2.746.819.819-2.746-2.854.267 1.34-2.534-2.851-.294 1.807-2.224-2.738-.845 2.206-1.828-2.52-1.363 2.52-1.363-2.206-1.828 2.738-.845-1.807-2.224 2.85-.295-1.339-2.533 2.854.267-.82-2.746 2.747.819-.267-2.853 2.533 1.338.295-2.85 2.224 1.807.845-2.738 1.828 2.207 1.363-2.521 1.363 2.52 1.828-2.206.845 2.738 2.224-1.807.294 2.85 2.534-1.338-.267 2.853 2.746-.819-.819 2.746 2.853-.267-1.339 2.533 2.85.295-1.807 2.224 2.739.845-2.207 1.828 2.52 1.363-2.52 1.363 2.207 1.828-2.739.845 1.808 2.224-2.85.294 1.338 2.534-2.853-.267.819 2.746z" fill="#b3b3b3" stroke="#000" stroke-width=".117"/><path d="M787.044-121.354c0 7.436-6.027 13.464-13.463 13.464-7.436 0-13.464-6.028-13.464-13.464 0-7.436 6.028-13.464 13.464-13.464 7.435 0 13.463 6.028 13.463 13.464z" fill="#b3b3b3" stroke="#666" stroke-width=".082"/><path d="M783.349-121.353a9.766 9.766 0 0 1-9.766 9.766c-5.393 0-9.766-4.372-9.766-9.766 0-5.393 4.372-9.765 9.766-9.765 5.393 0 9.766 4.372 9.766 9.765z" fill="none" stroke="#333" stroke-width=".174"/><g fill-rule="evenodd"><path d="M1304.39 1555.493c-1.478-.92-3.285-1.922-5.77 0 .4-2.692-1.024-4.031-2.884-4.983 1.885-.846 3.196-2.199 2.884-4.982 2.037 1.493 3.948 1.337 5.77 0-.311 2.205.533 3.916 2.884 4.982-2.087.696-3.075 2.334-2.885 4.983z" fill="url(#s)" stroke="#4d4d4d" stroke-width=".2" transform="translate(1851.19 1162.405) scale(.82796)"/><path d="M1142.612 1608.26a5.26 5.26 0 1 1-10.52 0 5.26 5.26 0 0 1 10.52 0z" fill="url(#t)" transform="rotate(180 669.9 339.645) scale(.49782)"/></g><path fill="url(#u)" d="M553.393-46.421h44.262v10.182h-44.262z" transform="matrix(.81275 0 0 1 267.858 -32.632)"/><path fill="url(#v)" d="M556.733-45.348h37.585v8.036h-37.585z" transform="matrix(.81275 0 0 1 267.858 -32.632)"/><path fill="url(#w)" d="M556.733-45.348h37.585v8.036h-37.585z" transform="matrix(.81275 0 0 1 267.858 -32.632)"/><path fill="url(#x)" d="M713.553-77.485h27.541v7.044h-27.541z" transform="translate(8.288)"/><g stroke="#628000" fill="none" stroke-linecap="round" stroke-width="1.4"><path d="M771.635 700.609a4.664 4.664 0 1 1 0-4.664" transform="matrix(0 -.46104 .50624 0 382.122 280.228)"/><path d="M735.613-76.424v2.6" stroke-width=".65"/></g><path d="M-238.907-186.499l5.92-2.457c-3.179-4.597-20.936-8.094-26.042-8.094v5.344c3.686 0 15.146 2.158 20.122 5.207z" fill="url(#y)" transform="matrix(1 0 0 1.399 102.46 30.76)"/><path d="M-238.297-138.129l5.5 2.283c.08-.231.122-.465.122-.7v-51.125c0-.478-.172-.948-.489-1.406l-5.92 2.457c1.448.886 2.347 1.849 2.347 2.855v43.312c0 .809-.58 1.589-1.56 2.324z" fill="url(#z)" transform="matrix(1 0 0 1.399 102.46 30.76)"/><path d="M-238.077-138.249l5.252 2.362c-3.179 4.597-20.46 8.094-25.565 8.094h-.587v-5.344c3.686 0 15.923-2.063 20.9-5.112z" fill="url(#A)" transform="matrix(1 0 0 1.399 102.46 30.76)"/><path d="M-663.833-186.499l5.92-2.457c-3.18-4.597-20.936-8.094-26.042-8.094v5.344c3.686 0 15.146 2.158 20.122 5.207z" fill="url(#B)" transform="matrix(-1 0 0 1.399 105.47 30.76)"/><path d="M-663.223-138.129l5.5 2.283a2.13 2.13 0 0 0 .121-.7v-51.125c0-.478-.172-.948-.489-1.406l-5.92 2.457c1.448.886 2.347 1.849 2.347 2.855v43.312c0 .809-.58 1.589-1.56 2.324z" fill="url(#C)" transform="matrix(-1 0 0 1.399 105.47 30.76)"/><path d="M-663.003-138.249l5.251 2.362c-3.179 4.597-20.459 8.094-25.565 8.094h-.586v-5.344c3.686 0 15.923-2.063 20.9-5.112z" fill="url(#D)" transform="matrix(-1 0 0 1.399 105.47 30.76)"/></g></svg>